<?xml version="1.0" encoding="UTF-8"?>
<svg width="446px" height="39px" viewBox="0 0 446 39" version="1.1" xmlns="http://www.w3.org/2000/svg" xmlns:xlink="http://www.w3.org/1999/xlink">
    <title>编组 2</title>
    <defs>
        <polygon id="path-1" points="0.5935 0.5156 6.0425 0.5156 6.0425 7 0.5935 7"></polygon>
    </defs>
    <g id="页面-1" stroke="none" stroke-width="1" fill="none" fill-rule="evenodd">
        <g id="编组-2">
            <g id="影谱支持" transform="translate(128.000000, 7.000000)" fill="#000000" fill-opacity="0.5" fill-rule="nonzero" opacity="0.4">
                <path d="M18.4622375,8.53448276 C22.2510097,6.85344828 25.4297254,4.71982759 27.9662763,2.19827586 L26.5535137,0.581896552 C24.177504,3.0387931 21.1593296,5.04310345 17.4989903,6.53017241 L18.4622375,8.53448276 Z M17.3705574,13.9331897 L17.3705574,12.0905172 L9.98566236,12.0905172 L9.53614701,10.0862069 L15.7972536,10.0862069 L15.7972536,1.35775862 L1.99071082,1.35775862 L1.99071082,10.0862069 L7.35278675,10.0862069 L7.83441034,12.0905172 L0.224757674,12.0905172 L0.224757674,13.9331897 L17.3705574,13.9331897 Z M13.6781099,5.04310345 L4.07774637,5.04310345 L4.07774637,2.97413793 L13.6781099,2.97413793 L13.6781099,5.04310345 Z M13.6781099,8.50215517 L4.07774637,8.50215517 L4.07774637,6.53017241 L13.6781099,6.53017241 L13.6781099,8.50215517 Z M19.1365105,18.0711207 C22.9894992,16.1314655 26.2003231,13.674569 28.7689822,10.700431 L27.3562197,9.08405172 C24.9481018,11.9935345 21.8978191,14.3211207 18.1732633,16.0668103 L19.1365105,18.0711207 Z M7.67386914,29.612069 C9.21506462,29.612069 10.0177706,28.8362069 10.0177706,27.3168103 L10.0177706,22.0150862 L15.572496,22.0150862 L15.572496,15.7758621 L2.27968498,15.7758621 L2.27968498,22.0150862 L7.8023021,22.0150862 L7.8023021,26.8318966 C7.8023021,27.4137931 7.51332795,27.7047414 6.96748788,27.7047414 C6.3253231,27.7047414 5.61894184,27.6400862 4.91256058,27.575431 L5.36207593,29.612069 L7.67386914,29.612069 Z M17.6916397,29.8383621 C22.957391,27.575431 26.9067044,23.825431 29.6037964,18.6206897 L27.8057351,17.262931 C25.3334006,22.112069 21.6409532,25.6034483 16.7605008,27.737069 L17.6916397,29.8383621 Z M13.4533522,20.3663793 L4.39882876,20.3663793 L4.39882876,17.424569 L13.4533522,17.424569 L13.4533522,20.3663793 Z M1.63752019,29.4181034 C2.85763328,27.8663793 3.88509693,26.0237069 4.78412763,23.9547414 L3.05028271,23.0818966 C2.18336026,25.0862069 1.15589661,26.799569 0,28.2219828 L1.63752019,29.4181034 Z M14.7376817,28.7715517 L16.3752019,27.6077586 C15.7330372,26.3146552 14.8018982,24.8275862 13.6138934,23.1465517 L12.0084814,24.1487069 C13.164378,25.8297414 14.0634087,27.3814655 14.7376817,28.7715517 Z M61.4551696,14.450431 L61.4551696,12.3814655 L55.1619548,12.3814655 L55.1619548,5.8512931 L60.6524637,5.8512931 L60.6524637,3.81465517 L56.0930937,3.81465517 C56.7031502,2.90948276 57.2489903,1.875 57.7306139,0.775862069 L55.7399031,0.0646551724 C55.194063,1.39008621 54.5518982,2.65086207 53.845517,3.81465517 L49.3824717,3.81465517 C48.7724152,2.39224138 48.0981422,1.13146552 47.3917609,0.0969827586 L45.4010501,0.840517241 C46.1074313,1.77801724 46.7495961,2.78017241 47.2633279,3.81465517 L42.3828756,3.81465517 L42.3828756,5.8512931 L48.0018174,5.8512931 L48.0018174,12.3814655 L41.4838449,12.3814655 L41.4838449,14.450431 L61.4551696,14.450431 Z M39.4931341,7.11206897 L41.098546,5.49568966 C39.6857835,3.84698276 37.9840468,2.19827586 35.9612278,0.549568966 L34.3558158,2.13362069 C36.5391761,3.87931034 38.2409128,5.56034483 39.4931341,7.11206897 Z M53.1391357,12.3814655 L50.0246365,12.3814655 L50.0246365,5.8512931 L53.1391357,5.8512931 L53.1391357,12.3814655 Z M58.0516963,11.6056034 C59.0791599,10.2478448 59.8818659,8.85775862 60.5240307,7.43534483 L58.8544023,6.62715517 C58.2443457,7.98491379 57.4416397,9.34267241 56.4141761,10.7327586 L58.0516963,11.6056034 Z M45.1120759,11.6056034 L46.7495961,10.8943966 C46.1074313,9.47198276 45.3368336,8.11422414 44.4378029,6.85344828 L42.703958,7.56465517 C43.6029887,8.72844828 44.4056947,10.0538793 45.1120759,11.6056034 Z M36.6997173,28.7392241 C38.7546446,27.2844828 40.7132472,25.6034483 42.575525,23.7284483 L41.9654685,21.2715517 C40.8095719,22.4353448 39.75,23.5021552 38.7225363,24.4073276 L38.7225363,10.1508621 L32.1724556,10.1508621 L32.1724556,12.3814655 L36.4749596,12.3814655 L36.4749596,25.3125 C36.4749596,25.7974138 36.2502019,26.25 35.8006866,26.637931 L36.6997173,28.7392241 Z M46.3964055,29.9030172 L46.3964055,28.5775862 L56.9279079,28.5775862 L56.9279079,29.9030172 L59.1112682,29.9030172 L59.1112682,16.8426724 L44.2130452,16.8426724 L44.2130452,29.9030172 L46.3964055,29.9030172 Z M56.9279079,21.8857759 L46.3964055,21.8857759 L46.3964055,18.7176724 L56.9279079,18.7176724 L56.9279079,21.8857759 Z M56.9279079,26.7025862 L46.3964055,26.7025862 L46.3964055,23.6961207 L56.9279079,23.6961207 L56.9279079,26.7025862 Z M90.5452342,29.8060345 L90.5452342,20.5603448 L93.7881664,20.0431034 L93.4349758,17.7801724 L90.5452342,18.2650862 L90.5452342,0.387931034 L88.2013328,0.387931034 L88.2013328,18.6530172 L77.8624798,20.3340517 L78.1835622,22.5969828 L88.2013328,20.9482759 L88.2013328,29.8060345 L90.5452342,29.8060345 Z M72.5325121,29.8060345 L72.5325121,15.0323276 C73.6884087,16.1637931 75.069063,17.7155172 76.7386914,19.6875 L78.0551292,17.7155172 C76.1928514,15.9051724 74.3305735,14.2564655 72.5325121,12.8017241 L72.5325121,11.2176724 L76.9634491,11.2176724 L76.9634491,8.98706897 L72.5325121,8.98706897 L72.5325121,3.81465517 C74.0737076,3.5237069 75.5185784,3.20043103 76.8992326,2.8125 L76.0965267,0.614224138 C72.8857027,1.58405172 69.161147,2.26293103 64.9870759,2.5862069 L65.4365913,4.78448276 C67.1062197,4.62284483 68.6795234,4.42887931 70.2207189,4.20258621 L70.2207189,8.98706897 L64.9549677,8.98706897 L64.9549677,11.2176724 L69.963853,11.2176724 C68.7437399,14.7737069 66.7851373,17.9741379 64.055937,20.7543103 L65.0512924,23.3405172 C67.2346527,20.7543103 68.9363893,17.8771552 70.2207189,14.7090517 L70.2207189,29.8060345 L72.5325121,29.8060345 Z M85.1510501,8.6637931 L86.7243538,7.04741379 C85.1510501,5.36637931 83.2245557,3.71767241 80.9127625,2.06896552 L79.2752423,3.65301724 C81.779685,5.3987069 83.7382876,7.07974138 85.1510501,8.6637931 Z M84.2520194,16.3577586 L85.8895396,14.7090517 C84.2841276,12.9633621 82.2934168,11.25 79.9495153,9.50431034 L78.3119952,11.0883621 C80.8164378,12.9633621 82.8071486,14.7090517 84.2520194,16.3577586 Z M100.113489,29.5474138 C101.975767,29.5474138 102.906906,28.5775862 102.906906,26.637931 L102.906906,17.3599138 C104.062803,16.8103448 105.2187,16.2284483 106.374596,15.5818966 L106.374596,13.3189655 C105.250808,13.9655172 104.094911,14.5474138 102.906906,15.1293103 L102.906906,8.4375 L106.31038,8.4375 L106.31038,6.20689655 L102.906906,6.20689655 L102.906906,0.290948276 L100.65933,0.290948276 L100.65933,6.20689655 L96.7742326,6.20689655 L96.7742326,8.4375 L100.65933,8.4375 L100.65933,16.0668103 C99.1823506,16.6163793 97.7053716,17.1012931 96.1641761,17.4892241 L96.7421244,19.7844828 C98.0906704,19.3318966 99.375,18.8469828 100.65933,18.3297414 L100.65933,26.0560345 C100.65933,27.0258621 100.209814,27.5107759 99.3428918,27.5107759 C98.572294,27.5107759 97.769588,27.4461207 96.9347738,27.3491379 L97.4163974,29.5474138 L100.113489,29.5474138 Z M107.594709,30 C111.190832,28.7068966 114.241115,27.0581897 116.745557,25.0538793 C118.928918,26.8642241 121.658118,28.512931 124.868942,29.9353448 L126.089055,27.9956897 C123.038772,26.7349138 120.438005,25.2801724 118.318861,23.6314655 C120.919628,21.1099138 122.781906,18.0711207 123.905695,14.5150862 L123.905695,12.4461207 L117.41983,12.4461207 L117.41983,7.17672414 L125.157916,7.17672414 L125.157916,4.94612069 L117.41983,4.94612069 L117.41983,0.355603448 L115.172254,0.355603448 L115.172254,4.94612069 L107.466276,4.94612069 L107.466276,7.17672414 L115.172254,7.17672414 L115.172254,12.4461207 L108.076333,12.4461207 L108.076333,14.6443966 L109.778069,14.6443966 C110.6771,17.9741379 112.443053,20.9482759 115.140145,23.5991379 C112.796244,25.4418103 109.906502,26.9288793 106.503029,28.0603448 L107.594709,30 Z M116.681341,22.2413793 C114.369548,20.0107759 112.764136,17.4892241 111.929321,14.6443966 L121.593901,14.6443966 C120.53433,17.5538793 118.896809,20.075431 116.681341,22.2413793 Z M132.446486,29.612069 C134.276656,29.612069 135.207795,28.674569 135.207795,26.8642241 L135.207795,17.3275862 C136.138934,16.875 137.070073,16.4224138 137.969103,15.9375 L137.969103,13.5775862 C137.070073,14.0948276 136.138934,14.5474138 135.207795,15 L135.207795,8.69612069 L138.450727,8.69612069 L138.450727,6.46551724 L135.207795,6.46551724 L135.207795,0.355603448 L132.831785,0.355603448 L132.831785,6.46551724 L128.946688,6.46551724 L128.946688,8.69612069 L132.831785,8.69612069 L132.831785,16.0021552 C131.419023,16.5517241 130.00626,17.0043103 128.561389,17.3599138 L129.107229,19.6875 C130.359451,19.299569 131.611672,18.8469828 132.831785,18.362069 L132.831785,26.25 C132.831785,27.0581897 132.414378,27.4784483 131.64378,27.4784483 C130.808966,27.4784483 129.974152,27.4137931 129.075121,27.3491379 L129.556745,29.612069 L132.446486,29.612069 Z M154.954362,12.6077586 L154.954362,1.39008621 L140.95517,1.39008621 L140.95517,12.6077586 L154.954362,12.6077586 Z M152.706785,6.10991379 L143.202746,6.10991379 L143.202746,3.29741379 L152.706785,3.29741379 L152.706785,6.10991379 Z M152.706785,10.700431 L143.202746,10.700431 L143.202746,7.92025862 L152.706785,7.92025862 L152.706785,10.700431 Z M138.57916,29.8383621 C139.959814,28.1573276 141.019386,26.3146552 141.789984,24.3103448 C142.753231,26.1206897 143.877019,27.3491379 145.097132,27.9956897 C146.638328,28.7715517 149.528069,29.1918103 153.766357,29.2241379 C154.793821,29.2241379 155.981826,29.2564655 157.266155,29.2564655 L157.90832,26.9935345 C156.720315,27.0905172 155.275444,27.1551724 153.605816,27.1551724 C151.839863,27.1551724 150.330775,27.0581897 149.046446,26.8642241 L149.046446,22.6939655 L155.757068,22.6939655 L155.757068,20.5926724 L149.046446,20.5926724 L149.046446,16.9396552 L157.073506,16.9396552 L157.073506,14.8706897 L138.707593,14.8706897 L138.707593,16.9396552 L146.830977,16.9396552 L146.830977,26.3793103 C146.542003,26.2823276 146.285137,26.1853448 146.06038,26.0883621 C144.711834,25.4741379 143.523829,24.0840517 142.496365,21.9181034 C142.753231,20.8189655 142.913772,19.7198276 142.977989,18.5560345 L140.923061,18.3297414 C140.666195,22.0150862 139.317649,25.3771552 136.877423,28.3512931 L138.57916,29.8383621 Z M166.898627,29.9030172 L166.898627,8.14655172 C168.182956,5.91594828 169.242528,3.5237069 170.077342,1.00215517 L167.893982,0 C166.28857,5.04310345 163.752019,9.53663793 160.252221,13.4806034 L161.022819,15.9375 C162.307149,14.612069 163.463045,13.2219828 164.522617,11.799569 L164.522617,29.9030172 L166.898627,29.9030172 Z M190.016559,19.2025862 L190.016559,16.9719828 L184.847132,16.9719828 L184.847132,9.40732759 L189.117528,9.40732759 L189.117528,7.14439655 L184.847132,7.14439655 L184.847132,0.387931034 L182.503231,0.387931034 L182.503231,7.14439655 L176.755856,7.14439655 L176.755856,0.387931034 L174.379847,0.387931034 L174.379847,7.14439655 L170.237884,7.14439655 L170.237884,9.40732759 L174.379847,9.40732759 L174.379847,16.9719828 L169.338853,16.9719828 L169.338853,19.2025862 L190.016559,19.2025862 Z M182.503231,16.9719828 L176.755856,16.9719828 L176.755856,9.40732759 L182.503231,9.40732759 L182.503231,16.9719828 Z M187.608441,29.8060345 L189.663368,28.3836207 C188.218498,26.1206897 186.16357,23.4375 183.466478,20.3987069 L181.572092,21.5625 C184.108643,24.6012931 186.131462,27.3491379 187.608441,29.8060345 Z M171.522213,29.8706897 C173.801898,27.5431034 175.792609,24.7952586 177.462237,21.6271552 L175.343094,20.625 C173.737682,23.6637931 171.779079,26.25 169.531502,28.4159483 L171.522213,29.8706897 Z M196.438207,29.5474138 C198.300485,29.5474138 199.231624,28.5775862 199.231624,26.637931 L199.231624,17.3599138 C200.38752,16.8103448 201.543417,16.2284483 202.699313,15.5818966 L202.699313,13.3189655 C201.575525,13.9655172 200.419628,14.5474138 199.231624,15.1293103 L199.231624,8.4375 L202.635097,8.4375 L202.635097,6.20689655 L199.231624,6.20689655 L199.231624,0.290948276 L196.984047,0.290948276 L196.984047,6.20689655 L193.09895,6.20689655 L193.09895,8.4375 L196.984047,8.4375 L196.984047,16.0668103 C195.507068,16.6163793 194.030089,17.1012931 192.488893,17.4892241 L193.066842,19.7844828 C194.415388,19.3318966 195.699717,18.8469828 196.984047,18.3297414 L196.984047,26.0560345 C196.984047,27.0258621 196.534532,27.5107759 195.667609,27.5107759 C194.897011,27.5107759 194.094305,27.4461207 193.259491,27.3491379 L193.741115,29.5474138 L196.438207,29.5474138 Z M203.919426,30 C207.515549,28.7068966 210.565832,27.0581897 213.070275,25.0538793 C215.253635,26.8642241 217.982835,28.512931 221.193659,29.9353448 L222.413772,27.9956897 C219.363489,26.7349138 216.762722,25.2801724 214.643578,23.6314655 C217.244346,21.1099138 219.106624,18.0711207 220.230412,14.5150862 L220.230412,12.4461207 L213.744548,12.4461207 L213.744548,7.17672414 L221.482633,7.17672414 L221.482633,4.94612069 L213.744548,4.94612069 L213.744548,0.355603448 L211.496971,0.355603448 L211.496971,4.94612069 L203.790994,4.94612069 L203.790994,7.17672414 L211.496971,7.17672414 L211.496971,12.4461207 L204.40105,12.4461207 L204.40105,14.6443966 L206.102787,14.6443966 C207.001817,17.9741379 208.767771,20.9482759 211.464863,23.5991379 C209.120961,25.4418103 206.23122,26.9288793 202.827746,28.0603448 L203.919426,30 Z M213.006058,22.2413793 C210.694265,20.0107759 209.088853,17.4892241 208.254039,14.6443966 L217.918619,14.6443966 C216.859047,17.5538793 215.221527,20.075431 213.006058,22.2413793 Z M240.68336,29.8383621 L240.68336,10.1508621 L240.811793,10.1508621 C242.995153,16.1637931 246.912359,21.6271552 252.563409,26.4762931 L254.104604,24.5043103 C248.806745,20.3017241 245.114297,15.5172414 242.995153,10.1508621 L253.173465,10.1508621 L253.173465,7.92025862 L240.68336,7.92025862 L240.68336,0.193965517 L238.371567,0.193965517 L238.371567,7.92025862 L225.91357,7.92025862 L225.91357,10.1508621 L236.059774,10.1508621 C233.780089,16.0344828 230.023425,20.8512931 224.82189,24.6012931 L226.074111,26.6702586 C231.789378,22.4030172 235.867124,16.875 238.243134,10.1508621 L238.371567,10.1508621 L238.371567,29.8383621 L240.68336,29.8383621 Z M248.453554,6.82112069 L250.283724,5.49568966 C249.25626,4.00862069 247.779281,2.26293103 245.852787,0.25862069 L244.054725,1.39008621 C245.917003,3.36206897 247.361874,5.17241379 248.453554,6.82112069 Z M258.503433,30 C263.608643,28.6099138 267.975363,26.7672414 271.635703,24.4396552 C273.241115,25.4741379 275.039176,26.4116379 276.997779,27.2521552 C279.470113,28.2866379 282.102989,29.1918103 284.864297,29.9353448 L286.212843,27.8987069 C283.612076,27.2521552 281.17185,26.5086207 278.892165,25.6357759 C276.96567,24.8599138 275.199717,23.987069 273.594305,23.0818966 C276.997779,20.4956897 279.598546,17.3922414 281.396607,13.7715517 L281.396607,11.7025862 L272.759491,11.7025862 L272.759491,6.75646552 L285.378029,6.75646552 L285.378029,4.49353448 L272.759491,4.49353448 L272.759491,0.25862069 L270.383481,0.25862069 L270.383481,4.49353448 L257.893376,4.49353448 L257.893376,6.75646552 L270.383481,6.75646552 L270.383481,11.7025862 L260.333603,11.7025862 L260.333603,13.8685345 L262.805937,13.8685345 C263.319669,15.6142241 264.154483,17.262931 265.31038,18.75 C266.562601,20.3663793 268.03958,21.8211207 269.709208,23.0818966 C266.241519,25.1508621 262.067447,26.7672414 257.186995,27.9310345 L258.503433,30 Z M271.603595,21.8211207 C270.190832,20.8512931 268.906502,19.7198276 267.782714,18.4267241 C266.562601,17.1012931 265.66357,15.5818966 265.085622,13.8685345 L278.79584,13.8685345 C277.126212,16.9719828 274.718094,19.6228448 271.603595,21.8211207 Z M317.967892,11.799569 L317.967892,9.6012931 L310.16559,9.6012931 L310.16559,5.81896552 L316.747779,5.81896552 L316.747779,3.71767241 L310.16559,3.71767241 L310.16559,0.355603448 L307.885905,0.355603448 L307.885905,3.71767241 L301.59269,3.71767241 L301.59269,5.81896552 L307.885905,5.81896552 L307.885905,9.6012931 L300.436793,9.6012931 L300.436793,11.799569 L317.967892,11.799569 Z M293.051898,29.612069 C294.882068,29.612069 295.813207,28.6422414 295.813207,26.7025862 L295.813207,17.5215517 C296.969103,17.0366379 298.092892,16.5193966 299.184572,15.9375 L299.184572,13.5452586 C298.092892,14.1271552 296.969103,14.6767241 295.813207,15.1939655 L295.813207,8.69612069 L299.152464,8.69612069 L299.152464,6.46551724 L295.813207,6.46551724 L295.813207,0.67887931 L293.533522,0.67887931 L293.533522,6.46551724 L289.584208,6.46551724 L289.584208,8.69612069 L293.533522,8.69612069 L293.533522,16.0991379 C292.120759,16.6163793 290.707997,17.0366379 289.231018,17.3922414 L289.808966,19.7198276 C291.029079,19.3318966 292.2813,18.9116379 293.533522,18.4590517 L293.533522,26.1206897 C293.533522,27.0581897 293.084006,27.5431034 292.249192,27.5431034 C291.446486,27.5431034 290.611672,27.4784483 289.74475,27.3814655 L290.226373,29.612069 L293.051898,29.612069 Z M311.225162,29.6767241 C313.087439,29.6767241 314.050687,28.7068966 314.050687,26.799569 L314.050687,18.1034483 L318,18.1034483 L318,15.9375 L314.050687,15.9375 L314.050687,13.4482759 L311.738893,13.4482759 L311.738893,15.9375 L299.923061,15.9375 L299.923061,18.1034483 L311.738893,18.1034483 L311.738893,26.2176724 C311.738893,27.0905172 311.289378,27.5431034 310.390347,27.5431034 C309.138126,27.5431034 307.821688,27.4784483 306.441034,27.4137931 L306.954766,29.6767241 L311.225162,29.6767241 Z M305.285137,26.1206897 L307.115307,24.8275862 C306.216276,23.3405172 304.931947,21.5948276 303.262318,19.6228448 L301.40004,20.7543103 C303.037561,22.7262931 304.32189,24.5043103 305.285137,26.1206897 Z" id="影谱科技提供技术支持"></path>
            </g>
            <path d="M65.7068,32.346 L66.8368,32.346 L67.9848,35.507 C68.1288,35.924 68.2568,36.349 68.4008,36.774 L68.4438,36.774 C68.5878,36.349 68.7068,35.924 68.8518,35.507 L69.9818,32.346 L71.1208,32.346 L71.1208,38.601 L70.2028,38.601 L70.2028,35.507 C70.2028,34.947 70.2798,34.139 70.3308,33.57 L70.2968,33.57 L69.7948,35.014 L68.7068,37.997 L68.0958,37.997 L66.9988,35.014 L66.5058,33.57 L66.4718,33.57 C66.5148,34.139 66.5908,34.947 66.5908,35.507 L66.5908,38.601 L65.7068,38.601 L65.7068,32.346 Z" id="Fill-20" fill-opacity="0.5" fill="#000000" opacity="0.424146076"></path>
            <g id="编组" opacity="0.424146076" transform="translate(72.000000, 31.711000)">
                <mask id="mask-2" fill="white">
                    <use xlink:href="#path-1"></use>
                </mask>
                <g id="Clip-23"></g>
                <path d="M5.0305,3.7366 C5.0305,2.2656 4.3505,1.3746 3.3135,1.3746 C2.2775,1.3746 1.6055,2.2656 1.6055,3.7366 C1.6055,5.2076 2.2775,6.1416 3.3135,6.1416 C4.3505,6.1416 5.0305,5.2076 5.0305,3.7366 M0.5935,3.7366 C0.5935,1.7226 1.7075,0.5156 3.3135,0.5156 C4.9205,0.5156 6.0425,1.7226 6.0425,3.7366 C6.0425,5.7516 4.9205,7.0006 3.3135,7.0006 C1.7075,7.0006 0.5935,5.7516 0.5935,3.7366" id="Fill-22" fill="#6D7278" mask="url(#mask-2)"></path>
            </g>
            <path d="M78.5808,32.346 L79.6258,32.346 L80.5528,35.583 C80.7658,36.297 80.9008,36.909 81.1228,37.632 L81.1648,37.632 C81.3768,36.909 81.5298,36.297 81.7338,35.583 L82.6608,32.346 L83.6638,32.346 L81.7088,38.601 L80.5438,38.601 L78.5808,32.346 Z" id="Fill-24" fill-opacity="0.5" fill="#000000" opacity="0.424146076"></path>
            <polygon id="Fill-26" fill-opacity="0.5" fill="#000000" opacity="0.424146076" points="84.645 38.601 85.631 38.601 85.631 32.346 84.645 32.346"></polygon>
            <polygon id="Fill-28" fill-opacity="0.5" fill="#000000" opacity="0.424146076" points="87.447 32.346 91.144 32.346 91.144 33.17 88.433 33.17 88.433 34.912 90.728 34.912 90.728 35.745 88.433 35.745 88.433 37.768 91.238 37.768 91.238 38.601 87.447 38.601"></polygon>
            <path d="M94.7014,37.8275 C95.6794,37.8275 96.2404,37.4785 96.2404,36.7145 C96.2404,36.0095 95.6964,35.7025 94.7014,35.7025 L93.7074,35.7025 L93.7074,37.8275 L94.7014,37.8275 Z M94.5484,34.9545 C95.5004,34.9545 95.8994,34.5985 95.8994,34.0115 C95.8994,33.3565 95.4574,33.1105 94.5744,33.1105 L93.7074,33.1105 L93.7074,34.9545 L94.5484,34.9545 Z M92.7214,32.3465 L94.6594,32.3465 C95.9424,32.3465 96.8684,32.7535 96.8684,33.8845 C96.8684,34.4785 96.5374,35.0485 95.9764,35.2355 L95.9764,35.2775 C96.6904,35.4315 97.2084,35.9155 97.2084,36.7655 C97.2084,38.0065 96.1974,38.6005 94.8114,38.6005 L92.7214,38.6005 L92.7214,32.3465 Z" id="Fill-29" fill-opacity="0.5" fill="#000000" opacity="0.424146076"></path>
            <path d="M102.6599,35.4476 C102.6599,33.9766 101.9799,33.0856 100.9429,33.0856 C99.9069,33.0856 99.2349,33.9766 99.2349,35.4476 C99.2349,36.9186 99.9069,37.8526 100.9429,37.8526 C101.9799,37.8526 102.6599,36.9186 102.6599,35.4476 M98.2229,35.4476 C98.2229,33.4336 99.3369,32.2266 100.9429,32.2266 C102.5499,32.2266 103.6719,33.4336 103.6719,35.4476 C103.6719,37.4626 102.5499,38.7116 100.9429,38.7116 C99.3369,38.7116 98.2229,37.4626 98.2229,35.4476" id="Fill-30" fill-opacity="0.5" fill="#000000" opacity="0.424146076"></path>
            <path d="M109.2419,35.4476 C109.2419,33.9766 108.5619,33.0856 107.5249,33.0856 C106.4889,33.0856 105.8169,33.9766 105.8169,35.4476 C105.8169,36.9186 106.4889,37.8526 107.5249,37.8526 C108.5619,37.8526 109.2419,36.9186 109.2419,35.4476 M104.8049,35.4476 C104.8049,33.4336 105.9189,32.2266 107.5249,32.2266 C109.1319,32.2266 110.2539,33.4336 110.2539,35.4476 C110.2539,37.4626 109.1319,38.7116 107.5249,38.7116 C105.9189,38.7116 104.8049,37.4626 104.8049,35.4476" id="Fill-31" fill-opacity="0.5" fill="#000000" opacity="0.424146076"></path>
            <polygon id="Fill-32" fill-opacity="0.5" fill="#000000" opacity="0.424146076" points="111.7268 32.346 112.7128 32.346 112.7128 35.303 112.7388 35.303 115.1178 32.346 116.2148 32.346 114.2768 34.759 116.5378 38.601 115.4408 38.601 113.6728 35.541 112.7128 36.714 112.7128 38.601 111.7268 38.601"></polygon>
            <path d="M90.4138,13.2689 C87.1868,13.2689 85.3998,18.2109 82.9298,18.2109 L82.9298,21.3349 C86.3748,21.3349 88.0988,16.3939 90.4138,16.3939 L90.4138,13.2689 Z" id="Fill-1" fill-opacity="0.5" fill="#000000" opacity="0.4"></path>
            <polygon id="Fill-3" fill-opacity="0.5" fill="#000000" opacity="0.4" points="75.3112 16.0335 75.3112 15.3645 72.6142 15.3645 72.6142 16.0335 65.7022 16.0335 65.7022 18.2775 82.0652 18.2775 82.0652 16.0335"></polygon>
            <polygon id="Fill-5" fill-opacity="0.5" fill="#000000" opacity="0.4" points="66.501 28.827 69.38 28.827 69.38 25.046 66.501 25.046"></polygon>
            <polygon id="Fill-7" fill-opacity="0.5" fill="#000000" opacity="0.4" points="78.387 28.827 81.267 28.827 81.267 25.046 78.387 25.046"></polygon>
            <path d="M69.328,22.341 L78.413,22.341 L78.413,21.181 L69.328,21.181 L69.328,22.341 Z M66.501,24.483 L72.13,24.483 L72.13,28.827 L75.639,28.827 L75.639,24.483 L81.267,24.483 L81.267,19.013 L66.501,19.013 L66.501,24.483 Z" id="Fill-8" fill-opacity="0.5" fill="#000000" opacity="0.4"></path>
            <path d="M69.303,9.807 L78.676,9.807 L78.676,8.924 L69.303,8.924 L69.303,9.807 Z M69.303,12.656 L78.676,12.656 L78.676,11.774 L69.303,11.774 L69.303,12.656 Z M66.475,14.823 L81.53,14.823 L81.53,6.757 L66.475,6.757 L66.475,14.823 Z" id="Fill-9" fill-opacity="0.5" fill="#000000" opacity="0.4"></path>
            <path d="M103.429,26.268 L113.038,26.268 L113.038,25.134 L103.429,25.134 L103.429,26.268 Z M103.429,22.587 L113.038,22.587 L113.038,21.352 L103.429,21.352 L103.429,22.587 Z M100.444,28.813 L115.891,28.813 L115.891,18.781 L100.444,18.781 L100.444,28.813 Z" id="Fill-10" fill-opacity="0.5" fill="#000000" opacity="0.4"></path>
            <path d="M107.278,15.191 L109.058,15.191 L109.058,10.311 L107.278,10.311 L107.278,15.191 Z M116.598,7.742 L113.638,7.742 L113.638,6.606 L110.654,6.606 L110.654,7.742 L105.682,7.742 L105.682,6.606 L102.697,6.606 L102.697,7.742 L99.737,7.742 L99.737,10.311 L104.293,10.311 L104.293,15.191 L99.737,15.191 L99.737,17.76 L116.598,17.76 L116.598,15.191 L112.043,15.191 L112.043,10.311 L116.598,10.311 L116.598,7.742 Z" id="Fill-11" fill-opacity="0.5" fill="#000000" opacity="0.4"></path>
            <polygon id="Fill-12" fill-opacity="0.5" fill="#000000" opacity="0.4" points="100.306 14.354 103.291 14.354 103.291 11.148 100.306 11.148"></polygon>
            <polygon id="Fill-13" fill-opacity="0.5" fill="#000000" opacity="0.4" points="113.045 14.354 116.03 14.354 116.03 11.148 113.045 11.148"></polygon>
            <path d="M90.4138,6.7571 C87.1868,6.7571 85.3998,11.6991 82.9298,11.6991 L82.9298,14.8231 C86.3748,14.8231 88.0988,9.8821 90.4138,9.8821 L90.4138,6.7571 Z" id="Fill-14" fill-opacity="0.5" fill="#000000" opacity="0.4"></path>
            <path d="M98.0232,6.7571 C94.7962,6.7571 94.2572,9.8891 91.7872,9.8891 L91.7872,13.3031 C95.2322,13.3031 95.7072,10.1711 98.0232,10.1711 L98.0232,6.7571 Z" id="Fill-15" fill-opacity="0.5" fill="#000000" opacity="0.4"></path>
            <path d="M90.4138,20.7606 C87.1868,20.7606 85.3998,25.7026 82.9298,25.7026 L82.9298,28.8266 C86.3748,28.8266 88.0988,23.8856 90.4138,23.8856 L90.4138,20.7606 Z" id="Fill-16" fill-opacity="0.5" fill="#000000" opacity="0.4"></path>
            <path d="M99.737,22.8968 C99.101,22.8968 98.362,24.0828 98.023,24.0828 L98.023,13.2688 C94.796,13.2688 94.258,16.4008 91.787,16.4008 L91.787,19.5218 C93.368,19.5218 94.322,18.8628 95.117,18.1488 C95.117,18.9068 95.117,28.8138 95.117,28.8138 C97.691,28.8138 99.095,26.2738 99.737,26.2738 L99.737,22.8968 Z" id="Fill-17" fill-opacity="0.5" fill="#000000" opacity="0.4"></path>
            <path d="M27.4196183,3.38557963 L26.5416794,1.50846793 L28.0987787,0 L28.9762443,1.8771117 L27.4196183,3.38557963 Z M27.0793283,3.7105804 L26.2274199,1.8334687 L24.694458,3.31918662 L25.5468397,5.19629824 L27.0793283,3.7105804 Z M28.6089771,2.54382756 L29.4419542,4.32947476 L27.9132519,5.81101402 L27.0793283,4.02629541 L28.6089771,2.54382756 Z M25.2472519,5.81101402 L26.0849618,7.60408979 L27.5758015,6.15922917 L26.7380916,4.3661534 L25.2472519,5.81101402 Z M29.1646107,4.8610832 L30.0704733,6.76605209 L28.5796336,8.2109127 L27.673771,6.30547953 L29.1646107,4.8610832 Z M23.5595267,7.14166013 L22.6863206,5.26501272 L24.2424733,3.75700909 L25.1161527,5.6327279 L23.5595267,7.14166013 Z M0.0265038353,27.955639 L0.0265038353,35.1534778 L3.40763359,35.1534778 L3.40763359,27.955639 L0.0265038353,27.955639 Z M51.3956335,21.0331222 L48.0140305,21.0331222 L48.0140305,6.66158755 L51.3956335,6.66158755 L51.3956335,21.0331222 Z M41.7643358,21.0484437 L46.8880915,6.64626603 L43.5064885,6.64626603 L40.0950687,16.3168966 L36.6841221,6.64580181 L33.3025191,6.64580181 L38.4258015,21.0484437 L41.7643358,21.0484437 Z M58.9189313,28.8642483 L58.9340763,28.8791055 L62,24.0937011 L58.0916335,24.0937011 L52.4562595,32.8891509 L52.4562595,24.0937011 L49.0746565,24.0937011 L49.0746565,38.9889513 L52.4562595,38.9889513 L54.9632366,35.0764062 L54.9613435,35.074549 L58.9189313,28.8642483 Z M55.4289465,34.9529059 L58.0163817,38.9889513 L62,38.9889513 L57.4143664,31.837077 L55.4289465,34.9529059 Z M62,9.92320254 L62,6.64580181 L52.5215725,6.64580181 L52.5215725,21.0484437 L62,21.0484437 L62,17.7705786 L55.9031755,17.7705786 L55.9031755,15.4862874 L60.8745343,15.4862874 L60.8745343,12.2084223 L55.9031755,12.2084223 L55.9031755,9.92320254 L62,9.92320254 Z M7.68941986,15.2866441 L3.38207633,6.67690899 L3.55271368e-15,6.67690899 L3.55271368e-15,21.0484437 L3.38207633,21.0484437 L3.38207633,13.436461 L6.03340461,18.7362953 L9.34543511,18.7362953 L11.9967634,13.436461 L11.9967634,21.0484437 L15.3788397,21.0484437 L15.3788397,6.67690899 L11.9967634,6.67690899 L7.68941986,15.2866441 Z M18.6922901,21.1816941 L18.8839695,20.9959793 L18.8711909,20.985765 C18.4195559,20.550279 18.1651717,19.9550748 18.1651717,19.3338324 C18.1651717,18.7125901 18.4195559,18.1173858 18.8711909,17.6818998 L28.3287939,8.48855627 L27.4163054,6.54737296 L25.8601527,8.05537659 L24.9424581,6.12255053 L23.3616947,7.65469706 L22.3824733,5.5654063 L18.4764733,9.342844 L18.479313,9.34516548 C16.8222798,10.8986732 15.9027769,13.0610361 15.9432284,15.3091878 C15.9836798,17.5573395 16.9804013,19.6865217 18.6922901,21.1816941 L18.6922901,21.1816941 Z M39.6818931,22.6209832 C37.8483926,22.6198444 36.0640338,23.2024568 34.5969466,24.281273 L34.5898473,24.2752373 L34.5311603,24.3286302 C34.0720763,24.6722025 27.9941832,30.5435739 27.9941832,30.5435738 L24.6717404,27.3237446 L24.4161679,27.5837453 L27.7296183,30.7998601 L21.9877557,36.3643379 C21.0416313,37.2765336 19.5248267,37.2765336 18.5787023,36.3643379 C18.1270675,35.9288519 17.8726832,35.3336476 17.8726832,34.7124053 C17.8726832,34.091163 18.1270675,33.4959587 18.5787023,33.0604728 L23.8463359,27.6868169 L23.8444427,27.6849598 L24.7275878,26.7888862 L24.7309007,26.7921362 L30.467084,21.0800152 L30.4647175,21.0730509 C32.0133212,19.4928042 32.8361035,17.3602135 32.7421526,15.1701081 C32.741102,13.1285399 31.9491613,11.1636644 30.5267176,9.67341624 L30.2233435,9.96730983 L30.2328092,9.9747384 C30.6844441,10.4102244 30.9388283,11.0054287 30.9388283,11.626671 C30.9388283,12.2479133 30.6844441,12.8431175 30.2328092,13.2786035 L18.1962901,25.2256324 L18.2010229,25.2284181 C15.0650851,28.37247 15.0768782,33.4020789 18.2275267,36.5319454 C21.3956749,39.6777203 26.5209824,39.8363282 29.8849465,36.8926963 L29.8929923,36.8978035 L31.6625954,35.3159782 L31.6611755,35.3141211 L32.5329619,34.5178691 L41.9536489,25.352847 C42.8997732,24.4406512 44.4165779,24.4406512 45.3627023,25.352847 C45.8143372,25.788333 46.0687214,26.3835373 46.0687214,27.0047796 C46.0687214,27.6260219 45.8143372,28.2212261 45.3627023,28.6567121 L37.4101374,36.3638736 C36.4639558,37.2763737 34.9467923,37.2763737 34.0006107,36.3638736 L33.9939848,36.3555165 L33.9930382,36.356445 L32.5495267,34.9570845 L32.273603,35.208728 L33.7242137,36.6169099 C36.4503274,39.2302231 40.613224,39.7514752 43.921084,37.8936987 C47.216555,36.0599712 48.8293789,32.2709015 47.8417557,28.6827122 C46.8253738,25.0889929 43.4835932,22.6066696 39.6818931,22.6214475 L39.6818931,22.6209832 Z M11.352626,33.3682949 C11.8584185,33.6508283 12.1049667,34.2335137 11.9518015,34.7843698 C11.7943211,35.3359238 11.2800488,35.7158659 10.6961832,35.7120149 L3.55271368e-15,35.7120149 L3.55271368e-15,38.9894466 L10.6961832,38.9894466 C12.4545883,38.995729 14.0684718,38.0354045 14.8752672,36.5026953 C15.6722667,34.9770878 15.5135817,33.1393293 14.4663512,31.7669697 C13.6193883,32.6000987 12.5328414,33.1590496 11.352626,33.3687592 L11.352626,33.3682949 Z M11.9972367,28.6325692 C11.9966975,28.9677958 11.8593125,29.2888448 11.615771,29.5239999 C11.3705974,29.7608037 11.0402472,29.8934011 10.6961832,29.893108 L5.17912976,29.893108 L5.17912976,33.1900088 L10.5352672,33.1900088 C11.9586279,33.1457727 13.307035,32.5536832 14.2888703,31.5417906 C14.5559773,31.2315205 14.7794651,30.8875136 14.9533588,30.5189666 L14.9188092,30.4855379 L14.9680305,30.4855379 C15.6189732,29.0830084 15.4904837,27.4508788 14.6277405,26.1630275 C13.7567354,24.8673528 12.2787701,24.089525 10.6966565,24.0941447 L3.55271368e-15,24.0941447 L3.55271368e-15,27.3715662 L10.6961832,27.3715662 C11.0391119,27.3695902 11.3687947,27.5013368 11.6127021,27.737822 C11.8566095,27.9743072 11.9947609,28.2961584 11.9967634,28.6325692 L11.9972367,28.6325692 Z" id="形状" fill-opacity="0.5" fill="#000000" fill-rule="nonzero" opacity="0.4"></path>
        </g>
    </g>
</svg>