<?xml version="1.0" encoding="UTF-8"?>
<svg width="426px" height="36px" viewBox="0 0 426 36" version="1.1" xmlns="http://www.w3.org/2000/svg" xmlns:xlink="http://www.w3.org/1999/xlink">
    <title>影谱支持</title>
    <g id="页面-1" stroke="none" stroke-width="1" fill="none" fill-rule="evenodd">
        <g id="影谱支持" fill="#FFFFFF" fill-rule="nonzero">
            <g id="编组-2" fill-opacity="0.400168">
                <polygon id="路径" points="23.7212286 3 23 1.33667032 24.2791602 0 25 1.66332968"></polygon>
                <polygon id="路径" points="23 2.67458238 22.2855725 1 21 2.32541769 21.7148244 4"></polygon>
                <polygon id="路径" points="25.2948718 2 26 3.63961919 24.7059295 5 24 3.36123347"></polygon>
                <polygon id="路径" points="22 5.33868654 22.7195122 7 24 5.66131346 23.2804878 4"></polygon>
                <polygon id="路径" points="25.2440758 4 26 5.70602911 24.7559242 7 24 5.29355508"></polygon>
                <polygon id="路径" points="20.7187378 6 20 4.33662551 21.2808726 3 22 4.66255143"></polygon>
                <polygon id="路径" points="0 25 0 32 3 32 3 25"></polygon>
                <polygon id="路径" points="45 19 42 19 42 6 45 6"></polygon>
                <polygon id="路径" points="36.4742379 19 41 6.00041901 38.0130639 6.00041901 34.999791 14.7292479 31.9869361 6 29 6 33.525344 19"></polygon>
                <polygon id="路径" points="51.3778835 26.1635496 51.3907726 26.1765165 54 22 50.6738191 22 45.8778835 29.6763294 45.8778835 22 43 22 43 35 45.8778835 35 48.0114244 31.5852815 48.0098132 31.5836606"></polygon>
                <polygon id="路径" points="48 31.0496624 50.3625756 35 54 35 49.8128781 28"></polygon>
                <polygon id="路径" points="54 8.9582218 54 6 46 6 46 19 54 19 54 16.041359 48.8541469 16.041359 48.8541469 13.97953 53.0500824 13.97953 53.0500824 11.020889 48.8541469 11.020889 48.8541469 8.9582218"></polygon>
                <polygon id="路径" points="7 13.7880726 3.07884532 6 0 6 0 19 3.07884532 19 3.07884532 12.1144601 5.49246017 16.9085094 8.50753983 16.9085094 10.9211547 12.1144601 10.9211547 19 14 19 14 6 10.9211547 6"></polygon>
                <path d="M16.4424106,19 L16.6126294,18.8335067 L16.6012815,18.8243496 C16.2002121,18.4339365 15.9743091,17.9003359 15.9743091,17.3433923 C15.9743091,16.7864486 16.2002121,16.2528481 16.6012815,15.8624349 L25,7.62060358 L24.1896747,5.88033299 L22.8077508,7.23225805 L21.9928023,5.49947973 L20.5890231,6.87304891 L19.7194365,5 L16.250757,8.38647242 L16.2532787,8.38855363 C14.7817689,9.78127307 13.9652147,11.7198312 14.0011372,13.7352989 C14.0370596,15.7507666 14.922187,17.6595782 16.4424106,19 L16.4424106,19 Z" id="路径"></path>
                <path d="M34.6706806,19.4788938 C33.0799344,19.4778842 31.5318235,19.9944095 30.2589778,20.950853 L30.2528185,20.9455019 L30.2019015,20.9928384 C29.8036,21.2974385 24.5304161,26.5028063 24.5304161,26.5028062 L21.6478626,23.6482099 L21.4261277,23.878718 L24.3008794,26.7300214 L19.3192358,31.6633072 C18.4983776,32.4720305 17.182397,32.4720305 16.3615389,31.6633072 C15.9697002,31.2772195 15.7489963,30.7495306 15.7489963,30.1987573 C15.7489963,29.647984 15.9697002,29.1202952 16.3615389,28.7342074 L20.9317411,23.970098 L20.9300986,23.9684516 L21.6963158,23.1740217 L21.6991901,23.176903 L26.6759064,18.1127215 L26.6738532,18.1065472 C28.0174227,16.7055516 28.7312692,14.8148656 28.6497574,12.8731891 C28.6488459,11.0632008 27.9617576,9.32120582 26.7276445,8 L26.464437,8.26055655 L26.4726494,8.26714248 C26.8644881,8.65323027 27.085192,9.1809191 27.085192,9.73169241 C27.085192,10.2824657 26.8644881,10.8101546 26.4726494,11.1962423 L16.0297577,21.7880915 L16.0338639,21.7905612 C13.3131223,24.5779758 13.3233541,29.0370643 16.0568587,31.8119027 C18.8055461,34.6008449 23.2522661,34.7414615 26.1708435,32.1317328 L26.1778241,32.1362606 L27.7131328,30.7338655 L27.711901,30.732219 L28.4682633,30.0262878 L36.6416573,21.9008759 C37.4625155,21.0921526 38.7784962,21.0921526 39.5993543,21.9008759 C39.991193,22.2869636 40.2118969,22.8146525 40.2118969,23.3654258 C40.2118969,23.9161991 39.991193,24.4438879 39.5993543,24.8299757 L32.699704,31.6628957 C31.8787961,32.4718887 30.5625042,32.4718887 29.7415964,31.6628957 L29.7358477,31.6554865 L29.7350265,31.6563097 L28.482635,30.4156819 L28.2432434,30.6387809 L29.5017942,31.8872295 C31.8669722,34.2041084 35.4787039,34.6662336 38.3486053,33.0191891 C41.2077581,31.3934656 42.6070451,28.0341991 41.7501826,24.8530266 C40.8683691,21.6669514 37.969038,19.4662039 34.6706806,19.4793055 L34.6706806,19.4788938 Z" id="路径"></path>
                <path d="M10.3348349,29.551999 C10.7952819,29.8258294 11.0197265,30.3905661 10.8802929,30.9244539 C10.736931,31.4590182 10.2687645,31.8272568 9.73724391,31.8235244 L0,31.8235244 L0,35 L9.73724391,35 C11.3380036,35.0060889 12.8071984,34.0753456 13.5416627,32.5898492 C14.2672092,31.1112355 14.1227507,29.3300863 13.169407,28 C12.3983764,28.8074658 11.4092412,29.3491991 10.3348349,29.552449 L10.3348349,29.551999 Z" id="路径"></path>
                <path d="M10.9213955,25.9916379 C10.9209047,26.2864766 10.7958396,26.5688458 10.5741374,26.7756696 C10.3509496,26.9839434 10.0502232,27.1005656 9.73701283,27.1003077 L4.71469607,27.1003077 L4.71469607,30 L9.59052681,30 C10.8862489,29.9610935 12.1137389,29.4403385 13.007529,28.5503581 C13.2506835,28.2774692 13.4541302,27.974908 13.6124301,27.6507633 L13.5809787,27.6213621 L13.6257862,27.6213621 C14.2183562,26.3878085 14.1013888,24.9523168 13.3160113,23.8196251 C12.5231128,22.6800524 11.1776827,21.9959369 9.73744368,22 L0,22 L0,24.8825598 L9.73701283,24.8825598 C10.0491897,24.8808218 10.3493085,24.9966957 10.5713437,25.2046893 C10.7933789,25.4126829 10.9191418,25.6957577 10.9209647,25.9916379 L10.9213955,25.9916379 Z" id="路径"></path>
                <path d="M86,10 C82.5507368,10 80.64,14.9013333 78,14.9013334 L78,18 C81.6825263,18 83.5250526,13.0986667 86,13.0986666 L86,10 Z" id="路径"></path>
                <polygon id="路径" points="70.3954286 13.6888749 70.3954286 13 67.7584762 13 67.7584762 13.6888749 61 13.6888749 61 16 77 16 77 13.6888749"></polygon>
                <polygon id="路径" points="62 22 65 22 65 26 62 26"></polygon>
                <polygon id="路径" points="74 22 77 22 77 26 74 26"></polygon>
                <path d="M62,22.2767926 L67.7177632,22.2767926 L67.7177632,26.6973684 L71.2822368,26.6973684 L71.2822368,22.2767926 L77,22.2767926 L77,16.7105263 L62,16.7105263 L62,22.2767926 Z M64.7003978,18.8289474 L74,18.8289474 L74,20.0394737 L64.7,20.0394737 L64.7003978,18.8289474 Z M77.3,4.30263158 L62,4.30263158 L62,12.7763158 L77.3,12.7763158 L77.3,4.30263158 Z M74.3,10.3552632 L64.7,10.3552632 L64.7,9.44736842 L74.3,9.44736842 L74.3,10.3552632 Z M74.3,7.63157895 L64.7,7.63157895 L64.7,6.72368421 L74.3,6.72368421 L74.3,7.63157895 Z M96.5,27 L112.1,27 L112.1,16.7105263 L96.5,16.7105263 L96.5,27 Z M99.5,19.4342105 L109.4,19.4342105 L109.4,20.6447368 L99.5,20.6447368 L99.5,19.4342105 Z M99.5,23.0657895 L109.4,23.0657895 L109.4,24.2763158 L99.5,24.2763158 L99.5,23.0657895 Z M113,5.14093186 L110.050623,5.14093186 L110.050623,4 L107.076633,4 L107.076633,5.14093186 L102.123367,5.14093186 L102.123367,4 L99.1493768,4 L99.1493768,5.14093186 L96.2,5.14093186 L96.2,7.71992579 L100.739126,7.71992579 L100.739126,12.6187744 L96.2,12.6187744 L96.2,15.1973684 L113,15.1973684 L113,12.6183746 L108.460874,12.6183746 L108.460874,7.71952587 L113,7.71952587 L113,5.14093186 Z M105.5,12.4736842 L103.7,12.4736842 L103.7,7.63157895 L105.5,7.63157895 L105.5,12.4736842 Z" id="形状"></path>
                <path d="M96,8 L99.3207547,8 L99.3207547,11 L96,11 L96,8 Z M108.679245,8 L112,8 L112,11 L108.679245,11 L108.679245,8 Z" id="形状"></path>
                <path d="M85.9734513,4 C82.7302282,4 80.9336283,8.93078842 78.4513274,8.93078842 L78.4513274,12.0480769 C81.9138798,12.0480769 83.6463437,7.11728851 85.9734513,7.11728844 L85.9734513,4 Z M93.7964602,4 C90.5265929,4 89.9808252,7.13766288 87.4778761,7.13766288 L87.4778761,10.5576923 C90.9688938,10.5576923 91.449896,7.42002942 93.7964602,7.42002942 L93.7964602,4 Z M85.9734513,17.7115385 C82.7302282,17.7115385 80.9336283,22.6423269 78.4513274,22.6423269 L78.4513274,25.7596154 C81.9138798,25.7596154 83.6463437,20.828827 85.9734513,20.8288269 L85.9734513,17.7115385 Z M95,19.8599279 C94.3741593,19.8599279 93.6458372,21.0429654 93.3129681,21.0429654 L93.3129681,10.2596154 C90.1376088,10.2596154 89.6076,13.3828653 87.1769912,13.3828654 L87.1769912,16.4944904 C88.4119081,16.5003959 89.595625,16.0061023 90.4536584,15.1262279 L90.4536584,25.7596154 C92.9863575,25.7596154 94.368292,23.2276904 95,23.2276904 L95,19.8599279 Z M61,28.7403846 L62.1307686,28.7403846 L63.2785588,31.9038377 C63.4232414,32.3212758 63.5505158,32.7465385 63.6951985,33.1714098 L63.7377522,33.1714098 C63.8824349,32.7465385 64.0015853,32.3212758 64.146268,31.9038377 L65.2770367,28.7403846 L66.4159292,28.7403846 L66.4159292,35 L65.4975423,35 L65.4975423,31.9038377 C65.4975423,31.3428197 65.5745259,30.5345468 65.6252035,29.9649219 L65.5915474,29.9649219 L65.0898003,31.4105018 L64.0015853,34.3959471 L63.3895853,34.3959471 L62.2924728,31.4105018 L61.7996233,29.9649219 L61.7655803,29.9649219 C61.808134,30.5345468 61.8847307,31.3428197 61.8847307,31.9038377 L61.8847307,35 L61,35 L61,28.7403846 Z" id="形状"></path>
                <path d="M68,32.4769412 C68,30.3028236 69.0214286,29 70.4960714,29 C71.9707143,29 73,30.3028235 73,32.4769412 C73,34.6518824 71.9703571,36 70.4960714,36 C69.0217858,36 68,34.6518824 68,32.4769412 Z M71.8888889,32.4768209 C71.8888889,30.8807722 71.2827078,29.9130435 70.3574657,29.9130435 C69.4325708,29.9130435 68.8333333,30.8807722 68.8333333,32.4768209 C68.8333333,34.0728696 69.4325708,35.0869565 70.3574657,35.0869565 C71.2827078,35.0869565 71.8888889,34.0728695 71.8888889,32.4768209 Z" id="形状"></path>
                <path d="M74,29 L75.0823333,29 L76.041619,32.6229375 C76.2618095,33.4218125 76.4018571,34.1069375 76.6313571,34.9154375 L76.6750714,34.9154375 C76.8952619,34.1069375 77.053119,33.4218125 77.2644047,32.6229375 L78.2236905,29 L79.2619048,29 L77.2380953,36 L76.0327143,36 L74,29 Z M80.1904762,29 L81.1190476,29 L81.1190476,36 L80.1904762,36 L80.1904762,29 L80.1904762,29 Z M82.9761905,29 L86.9006119,29 L86.9006119,29.92225 L84.0231857,29.92225 L84.0231857,31.8721875 L86.4583953,31.8721875 L86.4583953,32.8045 L84.0231857,32.8045 L84.0231857,35.0676875 L87,35.0676875 L87,36 L82.9761905,36 L82.9761905,29 L82.9761905,29 Z" id="形状"></path>
                <path d="M89,29 L90.8020324,29 C91.9950393,29 92.8567818,29.4360543 92.8567818,30.6462935 C92.8834386,31.2730726 92.5518273,31.8513257 92.0269135,32.0933913 L92.0269135,32.1381685 C92.721526,32.2683822 93.2155799,32.9548727 93.172868,33.7304783 C93.172868,35.0591467 92.2325782,35.6956522 90.9439486,35.6956522 L89,35.6956522 L89,29 Z M90.695852,31.7391304 C91.6023054,31.7391304 91.9824561,31.3863812 91.9824561,30.8047903 C91.9824561,30.1565992 91.5618804,29.9130435 90.7199515,29.9130435 L89.8947368,29.9130435 L89.8947368,31.7391304 L90.695852,31.7391304 Z M90.8312838,34.7826087 C91.7520679,34.7826087 92.2807018,34.433023 92.2807018,33.6664427 C92.2807018,32.959433 91.7682152,32.6521739 90.8312838,32.6521739 L89.8947368,32.6521739 L89.8947368,34.7826087 L90.8312838,34.7826087 Z M94.0701754,32.4769412 C94.0701754,30.3028236 95.1668672,29 96.7501679,29 C98.3334687,29 99.4385965,30.3028235 99.4385965,32.4769412 C99.4385965,34.6518824 98.3330852,36 96.7501679,36 C95.1672506,36 94.0701754,34.6518824 94.0701754,32.4769412 Z M98.245614,32.4768209 C98.245614,30.8807722 97.5947669,29.9130435 96.6013491,29.9130435 C95.6083041,29.9130435 94.9649123,30.8807722 94.9649123,32.4768209 C94.9649123,34.0728696 95.6083041,35.0869565 96.6013491,35.0869565 C97.5947669,35.0869565 98.245614,34.0728695 98.245614,32.4768209 Z M100.631579,32.4769412 C100.631579,30.3028236 101.728271,29 103.311571,29 C104.894872,29 106,30.3028235 106,32.4769412 C106,34.6518824 104.894489,36 103.311571,36 C101.728654,36 100.631579,34.6518824 100.631579,32.4769412 Z M104.807018,32.4768209 C104.807018,30.8807722 104.15617,29.9130435 103.162753,29.9130435 C102.169708,29.9130435 101.526316,30.8807722 101.526316,32.4768209 C101.526316,34.0728696 102.169708,35.0869565 103.162753,35.0869565 C104.156171,35.0869565 104.807018,34.0728695 104.807018,32.4768209 Z" id="形状"></path>
                <polygon id="路径" points="108 29 109.025 29 109.025 32.30925 109.051538 32.30925 111.524615 29 112.664615 29 110.650385 31.7006875 113 36 111.860769 36 110.023077 32.576125 109.025 33.888625 109.025 36 108 36 108 29"></polygon>
            </g>
            <path d="M145.45,12.17 C148.99,10.61 151.96,8.63 154.33,6.29 L153.01,4.79 C150.79,7.07 147.97,8.93 144.55,10.31 L145.45,12.17 Z M144.43,17.18 L144.43,15.47 L137.53,15.47 L137.11,13.61 L142.96,13.61 L142.96,5.51 L130.06,5.51 L130.06,13.61 L135.07,13.61 L135.52,15.47 L128.41,15.47 L128.41,17.18 L144.43,17.18 Z M140.98,8.93 L132.01,8.93 L132.01,7.01 L140.98,7.01 L140.98,8.93 Z M140.98,12.14 L132.01,12.14 L132.01,10.31 L140.98,10.31 L140.98,12.14 Z M146.08,21.02 C149.68,19.22 152.68,16.94 155.08,14.18 L153.76,12.68 C151.51,15.38 148.66,17.54 145.18,19.16 L146.08,21.02 Z M135.37,31.73 C136.81,31.73 137.56,31.01 137.56,29.6 L137.56,24.68 L142.75,24.68 L142.75,18.89 L130.33,18.89 L130.33,24.68 L135.49,24.68 L135.49,29.15 C135.49,29.69 135.22,29.96 134.71,29.96 C134.11,29.96 133.45,29.9 132.79,29.84 L133.21,31.73 L135.37,31.73 Z M144.73,31.94 C149.65,29.84 153.34,26.36 155.86,21.53 L154.18,20.27 C151.87,24.77 148.42,28.01 143.86,29.99 L144.73,31.94 Z M140.77,23.15 L132.31,23.15 L132.31,20.42 L140.77,20.42 L140.77,23.15 Z M129.73,31.55 C130.87,30.11 131.83,28.4 132.67,26.48 L131.05,25.67 C130.24,27.53 129.28,29.12 128.2,30.44 L129.73,31.55 Z M141.97,30.95 L143.5,29.87 C142.9,28.67 142.03,27.29 140.92,25.73 L139.42,26.66 C140.5,28.22 141.34,29.66 141.97,30.95 Z M185.62,17.66 L185.62,15.74 L179.74,15.74 L179.74,9.68 L184.87,9.68 L184.87,7.79 L180.61,7.79 C181.18,6.95 181.69,5.99 182.14,4.97 L180.28,4.31 C179.77,5.54 179.17,6.71 178.51,7.79 L174.34,7.79 C173.77,6.47 173.14,5.3 172.48,4.34 L170.62,5.03 C171.28,5.9 171.88,6.83 172.36,7.79 L167.8,7.79 L167.8,9.68 L173.05,9.68 L173.05,15.74 L166.96,15.74 L166.96,17.66 L185.62,17.66 Z M165.1,10.85 L166.6,9.35 C165.28,7.82 163.69,6.29 161.8,4.76 L160.3,6.23 C162.34,7.85 163.93,9.41 165.1,10.85 Z M177.85,15.74 L174.94,15.74 L174.94,9.68 L177.85,9.68 L177.85,15.74 Z M182.44,15.02 C183.4,13.76 184.15,12.47 184.75,11.15 L183.19,10.4 C182.62,11.66 181.87,12.92 180.91,14.21 L182.44,15.02 Z M170.35,15.02 L171.88,14.36 C171.28,13.04 170.56,11.78 169.72,10.61 L168.1,11.27 C168.94,12.35 169.69,13.58 170.35,15.02 Z M162.49,30.92 C164.41,29.57 166.24,28.01 167.98,26.27 L167.41,23.99 C166.33,25.07 165.34,26.06 164.38,26.9 L164.38,13.67 L158.26,13.67 L158.26,15.74 L162.28,15.74 L162.28,27.74 C162.28,28.19 162.07,28.61 161.65,28.97 L162.49,30.92 Z M171.55,32 L171.55,30.77 L181.39,30.77 L181.39,32 L183.43,32 L183.43,19.88 L169.51,19.88 L169.51,32 L171.55,32 Z M181.39,24.56 L171.55,24.56 L171.55,21.62 L181.39,21.62 L181.39,24.56 Z M181.39,29.03 L171.55,29.03 L171.55,26.24 L181.39,26.24 L181.39,29.03 Z M212.8,31.91 L212.8,23.33 L215.83,22.85 L215.5,20.75 L212.8,21.2 L212.8,4.61 L210.61,4.61 L210.61,21.56 L200.95,23.12 L201.25,25.22 L210.61,23.69 L210.61,31.91 L212.8,31.91 Z M195.97,31.91 L195.97,18.2 C197.05,19.25 198.34,20.69 199.9,22.52 L201.13,20.69 C199.39,19.01 197.65,17.48 195.97,16.13 L195.97,14.66 L200.11,14.66 L200.11,12.59 L195.97,12.59 L195.97,7.79 C197.41,7.52 198.76,7.22 200.05,6.86 L199.3,4.82 C196.3,5.72 192.82,6.35 188.92,6.65 L189.34,8.69 C190.9,8.54 192.37,8.36 193.81,8.15 L193.81,12.59 L188.89,12.59 L188.89,14.66 L193.57,14.66 C192.43,17.96 190.6,20.93 188.05,23.51 L188.98,25.91 C191.02,23.51 192.61,20.84 193.81,17.9 L193.81,31.91 L195.97,31.91 Z M207.76,12.29 L209.23,10.79 C207.76,9.23 205.96,7.7 203.8,6.17 L202.27,7.64 C204.61,9.26 206.44,10.82 207.76,12.29 Z M206.92,19.43 L208.45,17.9 C206.95,16.28 205.09,14.69 202.9,13.07 L201.37,14.54 C203.71,16.28 205.57,17.9 206.92,19.43 Z M221.74,31.67 C223.48,31.67 224.35,30.77 224.35,28.97 L224.35,20.36 C225.43,19.85 226.51,19.31 227.59,18.71 L227.59,16.61 C226.54,17.21 225.46,17.75 224.35,18.29 L224.35,12.08 L227.53,12.08 L227.53,10.01 L224.35,10.01 L224.35,4.52 L222.25,4.52 L222.25,10.01 L218.62,10.01 L218.62,12.08 L222.25,12.08 L222.25,19.16 C220.87,19.67 219.49,20.12 218.05,20.48 L218.59,22.61 C219.85,22.19 221.05,21.74 222.25,21.26 L222.25,28.43 C222.25,29.33 221.83,29.78 221.02,29.78 C220.3,29.78 219.55,29.72 218.77,29.63 L219.22,31.67 L221.74,31.67 Z M228.73,32.09 C232.09,30.89 234.94,29.36 237.28,27.5 C239.32,29.18 241.87,30.71 244.87,32.03 L246.01,30.23 C243.16,29.06 240.73,27.71 238.75,26.18 C241.18,23.84 242.92,21.02 243.97,17.72 L243.97,15.8 L237.91,15.8 L237.91,10.91 L245.14,10.91 L245.14,8.84 L237.91,8.84 L237.91,4.58 L235.81,4.58 L235.81,8.84 L228.61,8.84 L228.61,10.91 L235.81,10.91 L235.81,15.8 L229.18,15.8 L229.18,17.84 L230.77,17.84 C231.61,20.93 233.26,23.69 235.78,26.15 C233.59,27.86 230.89,29.24 227.71,30.29 L228.73,32.09 Z M237.22,24.89 C235.06,22.82 233.56,20.48 232.78,17.84 L241.81,17.84 C240.82,20.54 239.29,22.88 237.22,24.89 Z M251.95,31.73 C253.66,31.73 254.53,30.86 254.53,29.18 L254.53,20.33 C255.4,19.91 256.27,19.49 257.11,19.04 L257.11,16.85 C256.27,17.33 255.4,17.75 254.53,18.17 L254.53,12.32 L257.56,12.32 L257.56,10.25 L254.53,10.25 L254.53,4.58 L252.31,4.58 L252.31,10.25 L248.68,10.25 L248.68,12.32 L252.31,12.32 L252.31,19.1 C250.99,19.61 249.67,20.03 248.32,20.36 L248.83,22.52 C250,22.16 251.17,21.74 252.31,21.29 L252.31,28.61 C252.31,29.36 251.92,29.75 251.2,29.75 C250.42,29.75 249.64,29.69 248.8,29.63 L249.25,31.73 L251.95,31.73 Z M272.98,15.95 L272.98,5.54 L259.9,5.54 L259.9,15.95 L272.98,15.95 Z M270.88,9.92 L262,9.92 L262,7.31 L270.88,7.31 L270.88,9.92 Z M270.88,14.18 L262,14.18 L262,11.6 L270.88,11.6 L270.88,14.18 Z M257.68,31.94 C258.97,30.38 259.96,28.67 260.68,26.81 C261.58,28.49 262.63,29.63 263.77,30.23 C265.21,30.95 267.91,31.34 271.87,31.37 C272.83,31.37 273.94,31.4 275.14,31.4 L275.74,29.3 C274.63,29.39 273.28,29.45 271.72,29.45 C270.07,29.45 268.66,29.36 267.46,29.18 L267.46,25.31 L273.73,25.31 L273.73,23.36 L267.46,23.36 L267.46,19.97 L274.96,19.97 L274.96,18.05 L257.8,18.05 L257.8,19.97 L265.39,19.97 L265.39,28.73 C265.12,28.64 264.88,28.55 264.67,28.46 C263.41,27.89 262.3,26.6 261.34,24.59 C261.58,23.57 261.73,22.55 261.79,21.47 L259.87,21.26 C259.63,24.68 258.37,27.8 256.09,30.56 L257.68,31.94 Z M284.14,32 L284.14,11.81 C285.34,9.74 286.33,7.52 287.11,5.18 L285.07,4.25 C283.57,8.93 281.2,13.1 277.93,16.76 L278.65,19.04 C279.85,17.81 280.93,16.52 281.92,15.2 L281.92,32 L284.14,32 Z M305.74,22.07 L305.74,20 L300.91,20 L300.91,12.98 L304.9,12.98 L304.9,10.88 L300.91,10.88 L300.91,4.61 L298.72,4.61 L298.72,10.88 L293.35,10.88 L293.35,4.61 L291.13,4.61 L291.13,10.88 L287.26,10.88 L287.26,12.98 L291.13,12.98 L291.13,20 L286.42,20 L286.42,22.07 L305.74,22.07 Z M298.72,20 L293.35,20 L293.35,12.98 L298.72,12.98 L298.72,20 Z M303.49,31.91 L305.41,30.59 C304.06,28.49 302.14,26 299.62,23.18 L297.85,24.26 C300.22,27.08 302.11,29.63 303.49,31.91 Z M288.46,31.97 C290.59,29.81 292.45,27.26 294.01,24.32 L292.03,23.39 C290.53,26.21 288.7,28.61 286.6,30.62 L288.46,31.97 Z M311.74,31.67 C313.48,31.67 314.35,30.77 314.35,28.97 L314.35,20.36 C315.43,19.85 316.51,19.31 317.59,18.71 L317.59,16.61 C316.54,17.21 315.46,17.75 314.35,18.29 L314.35,12.08 L317.53,12.08 L317.53,10.01 L314.35,10.01 L314.35,4.52 L312.25,4.52 L312.25,10.01 L308.62,10.01 L308.62,12.08 L312.25,12.08 L312.25,19.16 C310.87,19.67 309.49,20.12 308.05,20.48 L308.59,22.61 C309.85,22.19 311.05,21.74 312.25,21.26 L312.25,28.43 C312.25,29.33 311.83,29.78 311.02,29.78 C310.3,29.78 309.55,29.72 308.77,29.63 L309.22,31.67 L311.74,31.67 Z M318.73,32.09 C322.09,30.89 324.94,29.36 327.28,27.5 C329.32,29.18 331.87,30.71 334.87,32.03 L336.01,30.23 C333.16,29.06 330.73,27.71 328.75,26.18 C331.18,23.84 332.92,21.02 333.97,17.72 L333.97,15.8 L327.91,15.8 L327.91,10.91 L335.14,10.91 L335.14,8.84 L327.91,8.84 L327.91,4.58 L325.81,4.58 L325.81,8.84 L318.61,8.84 L318.61,10.91 L325.81,10.91 L325.81,15.8 L319.18,15.8 L319.18,17.84 L320.77,17.84 C321.61,20.93 323.26,23.69 325.78,26.15 C323.59,27.86 320.89,29.24 317.71,30.29 L318.73,32.09 Z M327.22,24.89 C325.06,22.82 323.56,20.48 322.78,17.84 L331.81,17.84 C330.82,20.54 329.29,22.88 327.22,24.89 Z M353.08,31.94 L353.08,13.67 L353.2,13.67 C355.24,19.25 358.9,24.32 364.18,28.82 L365.62,26.99 C360.67,23.09 357.22,18.65 355.24,13.67 L364.75,13.67 L364.75,11.6 L353.08,11.6 L353.08,4.43 L350.92,4.43 L350.92,11.6 L339.28,11.6 L339.28,13.67 L348.76,13.67 C346.63,19.13 343.12,23.6 338.26,27.08 L339.43,29 C344.77,25.04 348.58,19.91 350.8,13.67 L350.92,13.67 L350.92,31.94 L353.08,31.94 Z M360.34,10.58 L362.05,9.35 C361.09,7.97 359.71,6.35 357.91,4.49 L356.23,5.54 C357.97,7.37 359.32,9.05 360.34,10.58 Z M369.73,32.09 C374.5,30.8 378.58,29.09 382,26.93 C383.5,27.89 385.18,28.76 387.01,29.54 C389.32,30.5 391.78,31.34 394.36,32.03 L395.62,30.14 C393.19,29.54 390.91,28.85 388.78,28.04 C386.98,27.32 385.33,26.51 383.83,25.67 C387.01,23.27 389.44,20.39 391.12,17.03 L391.12,15.11 L383.05,15.11 L383.05,10.52 L394.84,10.52 L394.84,8.42 L383.05,8.42 L383.05,4.49 L380.83,4.49 L380.83,8.42 L369.16,8.42 L369.16,10.52 L380.83,10.52 L380.83,15.11 L371.44,15.11 L371.44,17.12 L373.75,17.12 C374.23,18.74 375.01,20.27 376.09,21.65 C377.26,23.15 378.64,24.5 380.2,25.67 C376.96,27.59 373.06,29.09 368.5,30.17 L369.73,32.09 Z M381.97,24.5 C380.65,23.6 379.45,22.55 378.4,21.35 C377.26,20.12 376.42,18.71 375.88,17.12 L388.69,17.12 C387.13,20 384.88,22.46 381.97,24.5 Z M425.29,15.2 L425.29,13.16 L418,13.16 L418,9.65 L424.15,9.65 L424.15,7.7 L418,7.7 L418,4.58 L415.87,4.58 L415.87,7.7 L409.99,7.7 L409.99,9.65 L415.87,9.65 L415.87,13.16 L408.91,13.16 L408.91,15.2 L425.29,15.2 Z M402.01,31.73 C403.72,31.73 404.59,30.83 404.59,29.03 L404.59,20.51 C405.67,20.06 406.72,19.58 407.74,19.04 L407.74,16.82 C406.72,17.36 405.67,17.87 404.59,18.35 L404.59,12.32 L407.71,12.32 L407.71,10.25 L404.59,10.25 L404.59,4.88 L402.46,4.88 L402.46,10.25 L398.77,10.25 L398.77,12.32 L402.46,12.32 L402.46,19.19 C401.14,19.67 399.82,20.06 398.44,20.39 L398.98,22.55 C400.12,22.19 401.29,21.8 402.46,21.38 L402.46,28.49 C402.46,29.36 402.04,29.81 401.26,29.81 C400.51,29.81 399.73,29.75 398.92,29.66 L399.37,31.73 L402.01,31.73 Z M418.99,31.79 C420.73,31.79 421.63,30.89 421.63,29.12 L421.63,21.05 L425.32,21.05 L425.32,19.04 L421.63,19.04 L421.63,16.73 L419.47,16.73 L419.47,19.04 L408.43,19.04 L408.43,21.05 L419.47,21.05 L419.47,28.58 C419.47,29.39 419.05,29.81 418.21,29.81 C417.04,29.81 415.81,29.75 414.52,29.69 L415,31.79 L418.99,31.79 Z M413.44,28.49 L415.15,27.29 C414.31,25.91 413.11,24.29 411.55,22.46 L409.81,23.51 C411.34,25.34 412.54,26.99 413.44,28.49 Z" id="影谱科技提供技术支持" opacity="0.5"></path>
        </g>
    </g>
</svg>