<?xml version="1.0" encoding="UTF-8"?>
<svg width="92px" height="92px" viewBox="0 0 92 92" version="1.1" xmlns="http://www.w3.org/2000/svg" xmlns:xlink="http://www.w3.org/1999/xlink">
    <title>登录logo</title>
    <defs>
        <polygon id="path-1" points="0 0.322164354 91.678 0.322164354 91.678 49.5635075 0 49.5635075"></polygon>
        <polygon id="path-3" points="0.000464646465 0.275784071 91.6775354 0.275784071 91.6775354 42.3362832 0.000464646465 42.3362832"></polygon>
    </defs>
    <g id="页面-1" stroke="none" stroke-width="1" fill="none" fill-rule="evenodd">
        <g id="登录logo">
            <g id="编组">
                <mask id="mask-2" fill="white">
                    <use xlink:href="#path-1"></use>
                </mask>
                <g id="Clip-2"></g>
                <path d="M16.5129778,49.5635075 C22.6481697,49.5635075 25.6330586,48.6969453 28.7931192,47.7788627 C32.0581899,46.8306106 35.4352404,45.8503324 42.0866545,45.8503324 C48.7385333,45.8503324 52.1155838,46.8306106 55.3811192,47.7788627 C58.5416444,48.6969453 61.5260687,49.5635075 67.6621899,49.5635075 C73.7978465,49.5635075 76.7836646,48.6969453 79.9441899,47.7788627 C82.9425535,46.9081232 86.0426747,46.0127838 91.6783717,45.8716832 L91.6783717,39.9533462 C86.5779475,40.088413 83.8365333,40.8797834 80.9580485,41.715712 C77.6920485,42.663964 74.314998,43.6447064 67.6621899,43.6447064 C61.0103111,43.6447064 57.6332606,42.663964 54.3677253,41.715712 C51.2072,40.7980936 48.2223111,39.9315313 42.0866545,39.9315313 C36.1089778,39.9315313 33.121301,40.7544637 30.0485939,41.6451616 L30.0485939,37.8716474 C32.9684323,37.0510357 36.279503,36.3037593 42.0866545,36.3037593 C48.7385333,36.3037593 52.1155838,37.2840375 55.3811192,38.2322896 C58.5416444,39.1494438 61.5260687,40.0169343 67.6621899,40.0169343 C73.7978465,40.0169343 76.7836646,39.1494438 79.9441899,38.2322896 C82.9425535,37.36155 86.0426747,36.4657465 91.6783717,36.32511 L91.6783717,0.322164354 L-9.29292929e-05,0.322164354 L-9.29292929e-05,37.1331897 C1.56762424,37.4604133 2.91184646,37.8484401 4.23376566,38.2322896 C7.39382626,39.1494438 10.3787152,40.0169343 16.5129778,40.0169343 C20.5767758,40.0169343 23.2554626,39.6349415 25.5215434,39.1113838 L25.5215434,42.825023 C23.2257253,43.3007736 20.4429576,43.6447064 16.5129778,43.6447064 C9.86156364,43.6447064 6.48451313,42.663964 3.21990707,41.715712 C2.16841212,41.4103033 1.13457374,41.1118569 -9.29292929e-05,40.8477573 L-9.29292929e-05,46.680227 C1.56762424,47.0074506 2.91184646,47.3954774 4.23376566,47.7788627 C7.39382626,48.6969453 10.3787152,49.5635075 16.5129778,49.5635075" id="Fill-1" fill="#FFFFFF" mask="url(#mask-2)"></path>
            </g>
            <g id="编组" transform="translate(0.000000, 48.849558)">
                <mask id="mask-4" fill="white">
                    <use xlink:href="#path-3"></use>
                </mask>
                <g id="Clip-4"></g>
                <path d="M80.9581414,2.0451646 C77.6926061,2.98530619 74.3150909,3.9572 67.6622828,3.9572 C60.4198384,3.9572 57.0590505,2.80491681 53.498,1.79620885 L53.4970707,1.79666903 L47.9031919,6.44951858 C51.0386263,6.81029735 53.2373333,7.43981947 55.3812121,8.05645664 C58.5417374,8.96668673 61.5266263,9.82537699 67.6622828,9.82537699 C73.7979394,9.82537699 76.7842222,8.96668673 79.9433535,8.05645664 C80.5901414,7.87100531 81.2411111,7.68371327 81.9204242,7.50286372 L81.9204242,11.2358195 C81.5998182,11.3260142 81.2787475,11.4175894 80.9581414,11.510085 C77.6926061,12.4497664 74.3150909,13.4225805 67.6622828,13.4225805 C61.0094747,13.4225805 57.6333535,12.4497664 54.3668889,11.510085 C51.4967677,10.6836071 48.7623232,9.90130619 43.6879192,9.76417345 C43.3403636,9.76095221 43.0745859,9.76095221 42.8757172,9.7531292 L42.8757172,5.93642124 L49.0773535,0.776916814 C47.2224848,0.4732 45.0158788,0.275784071 42.0867475,0.275784071 C35.9524848,0.275784071 32.9671313,1.13493451 29.8075354,2.0451646 C26.5415354,2.98530619 23.1654141,3.9572 16.5130707,3.9572 C9.86165657,3.9572 6.48507071,2.98530619 3.22,2.0451646 C2.1689697,1.74282832 1.13466667,1.44601416 0.000464646465,1.18509381 L0.000464646465,6.96675752 C1.56818182,7.2911823 2.91193939,7.67589027 4.23385859,8.05645664 C7.39391919,8.96668673 10.3792727,9.82537699 16.5130707,9.82537699 C22.6482626,9.82537699 25.6331515,8.96668673 28.7932121,8.05645664 C31.3808283,7.31143009 34.0455758,6.54891681 38.348202,6.26360708 L38.348202,9.86771327 C34.5882828,10.1378372 32.2469293,10.808315 29.8075354,11.510085 C26.5415354,12.4497664 23.1654141,13.4225805 16.5130707,13.4225805 C9.86165657,13.4225805 6.48507071,12.4497664 3.22,11.510085 C2.1689697,11.2082088 1.13466667,10.9118549 0.000464646465,10.6500142 L0.000464646465,16.4325982 C1.56818182,16.757023 2.91193939,17.141731 4.23385859,17.5218372 C7.39391919,18.4311469 10.3792727,19.2912177 16.5130707,19.2912177 C20.5768687,19.2912177 23.2555556,18.912492 25.5216364,18.3938726 L25.5216364,22.0752885 C23.2258182,22.5474301 20.4430505,22.8875009 16.5130707,22.8875009 C9.86165657,22.8875009 6.48507071,21.9156071 3.22,20.9754655 C2.1689697,20.672669 1.13466667,20.3767752 0.000464646465,20.1153947 L0.000464646465,42.3364212 L91.6775354,42.3364212 L91.6775354,19.2286336 C86.5780404,19.3625451 83.835697,20.1466867 80.9581414,20.9754655 C77.6926061,21.9156071 74.3150909,22.8875009 67.6622828,22.8875009 C61.0094747,22.8875009 57.6333535,21.9156071 54.3668889,20.9754655 C51.2077576,20.0656956 48.222404,19.206085 42.0867475,19.206085 C36.1090707,19.206085 33.1213939,20.0219788 30.0486869,20.9055186 L30.0486869,17.1638195 C32.9685253,16.3506867 36.279596,15.6098018 42.0867475,15.6098018 C48.7386263,15.6098018 52.1156768,16.5816956 55.3812121,17.5218372 C58.5417374,18.4311469 61.5266263,19.2912177 67.6622828,19.2912177 C73.7979394,19.2912177 76.7842222,18.4311469 79.9433535,17.5218372 C82.9426465,16.6585451 86.0418384,15.7708637 91.6775354,15.6305097 L91.6775354,9.76279292 C89.6005657,9.81847434 87.9106465,9.98045664 86.4474747,10.2096248 L86.4474747,6.57422655 C87.936202,6.36438584 89.6423838,6.21620885 91.6775354,6.16558938 L91.6775354,0.298332743 C86.5780404,0.432244248 83.835697,1.21638584 80.9581414,2.0451646" id="Fill-3" fill="#FFFFFF" mask="url(#mask-4)"></path>
            </g>
        </g>
    </g>
</svg>