<svg id="图层_1" data-name="图层 1" xmlns="http://www.w3.org/2000/svg" viewBox="0 0 28 28"><defs><style>.cls-1{fill:#4b7378;}.cls-2{fill:#fff;}.cls-3{fill:none;}</style></defs><title>未标题-5</title><path class="cls-1" d="M5.16461,14.9982A11.2698,11.2698,0,0,0,8.851,14.462a12.33809,12.33809,0,0,1,3.99064-.5797,12.34012,12.34012,0,0,1,3.99093.5797,11.27107,11.27107,0,0,0,3.6867.53618,11.272,11.272,0,0,0,3.68685-.53618,12.121,12.121,0,0,1,3.52254-.57328V12.11018a11.04546,11.04546,0,0,0-3.218.52962,12.34239,12.34239,0,0,1-3.99134.5797,12.34108,12.34108,0,0,1-3.99106-.5797,11.27028,11.27028,0,0,0-3.68657-.53618,11.18957,11.18957,0,0,0-3.61376.51511V11.48459a12.1255,12.1255,0,0,1,3.61376-.47118,12.34092,12.34092,0,0,1,3.99093.57956,11.27034,11.27034,0,0,0,3.6867.53632,11.27131,11.27131,0,0,0,3.68685-.53632,12.12186,12.12186,0,0,1,3.52254-.57314V.20031H.20748V11.26267c.47062.09833.87415.21494,1.271.3303a11.26842,11.26842,0,0,0,3.68615.53632,11.49442,11.49442,0,0,0,2.70432-.272v1.116a12.973,12.973,0,0,1-2.70432.24619,12.3364,12.3364,0,0,1-3.99051-.5797C.85845,12.548.5481,12.45833.20748,12.379v1.75276c.47062.09833.87415.21494,1.271.3303a11.26915,11.26915,0,0,0,3.68615.53618"/><path class="cls-1" d="M24.51062,15.50873a12.34174,12.34174,0,0,1-3.99134.57969,12.76747,12.76747,0,0,1-4.25189-.65516l-.00028.00014-1.67925,1.41046a12.57284,12.57284,0,0,1,2.24471.48708,11.27189,11.27189,0,0,0,3.68671.53618,11.27151,11.27151,0,0,0,3.68685-.53618c.194-.05635.38958-.11312.59351-.1678V18.2945q-.14458.041-.289.08327a12.34646,12.34646,0,0,1-3.99134.57956,12.34578,12.34578,0,0,1-3.99106-.57956,11.04394,11.04394,0,0,0-3.20591-.5292c-.10433-.00112-.18412-.00112-.24382-.00349V16.68821l1.8617-1.5639a12.68308,12.68308,0,0,0-2.09854-.15176,11.26848,11.26848,0,0,0-3.68615.53618,12.34011,12.34011,0,0,1-3.99092.57969,12.33712,12.33712,0,0,1-3.99051-.57969c-.31551-.09164-.626-.18147-.96648-.2607v1.75262c.47062.09834.874.21495,1.27084.3303a11.27,11.27,0,0,0,3.68615.53618A11.26989,11.26989,0,0,0,8.851,17.33095a12.06458,12.06458,0,0,1,2.86836-.54357v1.09244a11.055,11.055,0,0,0-2.56386.498,12.34483,12.34483,0,0,1-3.99092.57956,12.34183,12.34183,0,0,1-3.99051-.57956c-.31551-.09164-.626-.18147-.96648-.2607V19.8697c.47062.09834.874.21495,1.27084.33016a11.26922,11.26922,0,0,0,3.68615.53632,11.503,11.503,0,0,0,2.70432-.27186V21.5802a12.96522,12.96522,0,0,1-2.70432.24605,12.3379,12.3379,0,0,1-3.99051-.57956c-.31551-.09178-.626-.18147-.96648-.2607v6.73542H27.72866V20.7172a11.04631,11.04631,0,0,0-3.218.52949,12.34253,12.34253,0,0,1-3.99134.57956,12.34185,12.34185,0,0,1-3.99106-.57956,11.26878,11.26878,0,0,0-3.68657-.53632,11.18867,11.18867,0,0,0-3.61376.51525V20.09148a12.12533,12.12533,0,0,1,3.61376-.47118,12.34082,12.34082,0,0,1,3.99092.57956,11.27116,11.27116,0,0,0,3.68671.53632,11.27078,11.27078,0,0,0,3.68685-.53632,12.122,12.122,0,0,1,3.52253-.57314V17.84815a12.00523,12.00523,0,0,0-1.57.13544V16.88153a13.51223,13.51223,0,0,1,1.57-.12386V14.97924a11.05094,11.05094,0,0,0-3.218.52949"/><path class="cls-2" d="M20.51924,12.12923a11.27567,11.27567,0,0,1-3.6867-.53618,12.33618,12.33618,0,0,0-3.99093-.5797,12.1255,12.1255,0,0,0-3.61376.47118v1.13415a11.1901,11.1901,0,0,1,3.61376-.51511,11.27124,11.27124,0,0,1,3.68671.53618,12.34011,12.34011,0,0,0,3.99092.5797,12.34172,12.34172,0,0,0,3.99134-.5797,11.04727,11.04727,0,0,1,3.21818-.52948V11.01977a12.12119,12.12119,0,0,0-3.52254.57328,11.277,11.277,0,0,1-3.687.53618"/><path class="cls-2" d="M5.16461,21.82631a12.97461,12.97461,0,0,0,2.70432-.24605v-1.116a11.4957,11.4957,0,0,1-2.70432.27186,11.26913,11.26913,0,0,1-3.68615-.53618c-.39683-.11535-.80036-.232-1.271-.3303v1.11629c.34062.07923.651.16906.96662.26069a12.33247,12.33247,0,0,0,3.99051.5797"/><path class="cls-2" d="M20.51924,20.73612a11.27183,11.27183,0,0,1-3.6867-.53618,12.34012,12.34012,0,0,0-3.99093-.5797,12.12443,12.12443,0,0,0-3.61376.47132v1.13414a11.18947,11.18947,0,0,1,3.61376-.51525,11.27493,11.27493,0,0,1,3.68671.53618,12.33632,12.33632,0,0,0,3.99092.57969,12.33793,12.33793,0,0,0,3.99134-.57969,11.052,11.052,0,0,1,3.21818-.52949V19.62666a12.12119,12.12119,0,0,0-3.52254.57328,11.27312,11.27312,0,0,1-3.687.53618"/><path class="cls-2" d="M5.16461,18.95735a12.34315,12.34315,0,0,0,3.99078-.57956,11.0563,11.0563,0,0,1,2.564-.498V16.78725A12.06382,12.06382,0,0,0,8.851,17.331a11.27363,11.27363,0,0,1-3.68643.53618A11.273,11.273,0,0,1,1.47846,17.331c-.39683-.11535-.80036-.232-1.271-.3303v1.11643c.34062.07923.651.16906.96662.2607a12.34114,12.34114,0,0,0,3.99051.57956"/><path class="cls-2" d="M5.16461,16.08839a12.33448,12.33448,0,0,0,3.99078-.5797,11.274,11.274,0,0,1,3.68629-.53618,12.69794,12.69794,0,0,1,2.09841.15176l-1.8617,1.5639V17.846c.07657.00056.248.00279.2501.00279a11.03874,11.03874,0,0,1,3.19977.52892,12.34189,12.34189,0,0,0,3.99106.57956,12.3432,12.3432,0,0,0,3.99134-.57956q.14458-.04205.289-.08327V17.16312c-.20392.05482-.39948.11145-.59351.1678a11.27216,11.27216,0,0,1-3.68685.53618,11.27119,11.27119,0,0,1-3.6867-.53618,12.56193,12.56193,0,0,0-2.24472-.48694l1.67925-1.41061q.13056.03745.26112.07532a12.33715,12.33715,0,0,0,3.99106.5797,12.33846,12.33846,0,0,0,3.99134-.5797,11.051,11.051,0,0,1,3.218-.52948V13.88873a12.12114,12.12114,0,0,0-3.52254.57328,11.27216,11.27216,0,0,1-3.68685.53618,11.27119,11.27119,0,0,1-3.6867-.53618,12.34012,12.34012,0,0,0-3.99093-.5797A12.33809,12.33809,0,0,0,8.851,14.462a11.26992,11.26992,0,0,1-3.68643.53618A11.26927,11.26927,0,0,1,1.47846,14.462c-.39683-.11535-.80036-.232-1.271-.3303V15.248c.34062.07923.651.16905.96662.26069a12.33247,12.33247,0,0,0,3.99051.5797"/><path class="cls-2" d="M5.16461,13.21942a12.96374,12.96374,0,0,0,2.70432-.24619V11.85736a11.4957,11.4957,0,0,1-2.70432.27186A11.2731,11.2731,0,0,1,1.47846,11.593c-.39683-.11536-.80036-.232-1.271-.3303V12.379c.34062.07923.651.16906.96662.2607a12.33643,12.33643,0,0,0,3.99051.57969"/><path class="cls-2" d="M26.15869,16.8815v1.10207s1.157-.14423,1.57-.1353V16.75764a14.59408,14.59408,0,0,0-1.57.12386"/><rect class="cls-3" x="0.2075" y="0.20025" width="27.57715" height="46.79975"/></svg>