<?xml version="1.0" encoding="UTF-8"?>
<svg width="28px" height="28px" viewBox="0 0 28 28" version="1.1" xmlns="http://www.w3.org/2000/svg" xmlns:xlink="http://www.w3.org/1999/xlink">
    <title>标题logo图形</title>
    <defs>
        <polygon id="path-1" points="0 0.0984089166 27.902 0.0984089166 27.902 15.1397602 0 15.1397602"></polygon>
        <polygon id="path-3" points="0.000141414141 0.0823000064 27.9018586 0.0823000064 27.9018586 12.6340741 0.000141414141 12.6340741"></polygon>
    </defs>
    <g id="页面-1" stroke="none" stroke-width="1" fill="none" fill-rule="evenodd">
        <g id="画板" transform="translate(-24.000000, -11.000000)">
            <g id="标题logo图形" transform="translate(24.000000, 11.000000)">
                <g id="编组">
                    <mask id="mask-2" fill="white">
                        <use xlink:href="#path-1"></use>
                    </mask>
                    <g id="Clip-2"></g>
                    <path d="M5.02568889,15.1397602 C6.89292121,15.1397602 7.80136566,14.8750586 8.76312323,14.5946194 C9.7568404,14.3049645 10.7846384,14.005527 12.8089818,14.005527 C14.8334667,14.005527 15.8612646,14.3049645 16.8551232,14.5946194 C17.8170222,14.8750586 18.7253253,15.1397602 20.5928404,15.1397602 C22.4602141,15.1397602 23.3689414,14.8750586 24.3308404,14.5946194 C25.2433859,14.3286417 26.186901,14.0551497 27.9021131,14.0120488 L27.9021131,12.2042227 C26.3498101,12.2454804 25.5154667,12.4872139 24.6394061,12.7425582 C23.6454061,13.032213 22.6176081,13.3317924 20.5928404,13.3317924 C18.5683556,13.3317924 17.5405576,13.032213 16.546699,12.7425582 C15.5848,12.4622608 14.6763556,12.1975591 12.8089818,12.1975591 C10.9896889,12.1975591 10.080396,12.4489335 9.14522424,12.7210077 L9.14522424,11.5683431 C10.0338707,11.3176776 11.0415879,11.0894131 12.8089818,11.0894131 C14.8334667,11.0894131 15.8612646,11.3888507 16.8551232,11.6785056 C17.8170222,11.9586612 18.7253253,12.2236464 20.5928404,12.2236464 C22.4602141,12.2236464 23.3689414,11.9586612 24.3308404,11.6785056 C25.2433859,11.4125279 26.186901,11.1388941 27.9021131,11.095935 L27.9021131,0.0984089166 L-2.82828283e-05,0.0984089166 L-2.82828283e-05,11.3427725 C0.47710303,11.4427268 0.886214141,11.5612542 1.28853737,11.6785056 C2.25029495,11.9586612 3.15873939,12.2236464 5.02568889,12.2236464 C6.26249697,12.2236464 7.07774949,12.1069622 7.76742626,11.9470353 L7.76742626,13.0814104 C7.06869899,13.226734 6.2217697,13.3317924 5.02568889,13.3317924 C3.00134545,13.3317924 1.97354747,13.032213 0.979971717,12.7425582 C0.659951515,12.6492675 0.345305051,12.5581035 -2.82828283e-05,12.4774311 L-2.82828283e-05,14.2590281 C0.47710303,14.3589824 0.886214141,14.4775098 1.28853737,14.5946194 C2.25029495,14.8750586 3.15873939,15.1397602 5.02568889,15.1397602" id="Fill-1" fill="#FFFFFF" mask="url(#mask-2)"></path>
                </g>
                <g id="编组" transform="translate(0.000000, 15.000000)">
                    <mask id="mask-4" fill="white">
                        <use xlink:href="#path-3"></use>
                    </mask>
                    <g id="Clip-4"></g>
                    <path d="M24.6394343,0.610321907 C23.6455758,0.890880747 22.6176364,1.18091514 20.5928687,1.18091514 C18.3886465,1.18091514 17.365798,0.837048605 16.282,0.536028058 L16.2817172,0.536165385 L14.5792323,1.92467759 C15.5334949,2.03234187 16.2026667,2.22020506 16.8551515,2.4042231 C17.8170505,2.67585569 18.7254949,2.93210767 20.5928687,2.93210767 C22.4602424,2.93210767 23.3691111,2.67585569 24.3305859,2.4042231 C24.5274343,2.34888036 24.7255556,2.29298832 24.932303,2.23901885 L24.932303,3.3530146 C24.8347273,3.37993067 24.7370101,3.40725872 24.6394343,3.43486142 C23.6455758,3.71528294 22.6176364,4.00559199 20.5928687,4.00559199 C18.568101,4.00559199 17.5405859,3.71528294 16.5464444,3.43486142 C15.6729293,3.18822233 14.8407071,2.95476661 13.2963232,2.91384319 C13.1905455,2.91288191 13.1096566,2.91288191 13.0491313,2.91054735 L13.0491313,1.77155811 L14.9365859,0.231848992 C14.3720606,0.141213243 13.7004848,0.0823000064 12.8090101,0.0823000064 C10.9420606,0.0823000064 10.0334747,0.338689314 9.07185859,0.610321907 C8.07785859,0.890880747 7.05034343,1.18091514 5.02571717,1.18091514 C3.00137374,1.18091514 1.97371717,0.890880747 0.98,0.610321907 C0.660121212,0.520098138 0.345333333,0.431522293 0.000141414141,0.353657945 L0.000141414141,2.07903302 C0.477272727,2.17584848 0.886242424,2.29065376 1.28856566,2.4042231 C2.25032323,2.67585569 3.15890909,2.93210767 5.02571717,2.93210767 C6.89294949,2.93210767 7.80139394,2.67585569 8.76315152,2.4042231 C9.55068687,2.18189086 10.361697,1.9543402 11.6711919,1.86919753 L11.6711919,2.94474175 C10.5268687,3.02535263 9.81428283,3.22543791 9.07185859,3.43486142 C8.07785859,3.71528294 7.05034343,4.00559199 5.02571717,4.00559199 C3.00137374,4.00559199 1.97371717,3.71528294 0.98,3.43486142 C0.660121212,3.34477498 0.345333333,3.25633646 0.000141414141,3.17819746 L0.000141414141,4.90384719 C0.477272727,5.00066265 0.886242424,5.11546793 1.28856566,5.22889994 C2.25032323,5.50025788 3.15890909,5.75692184 5.02571717,5.75692184 C6.26252525,5.75692184 7.07777778,5.64390181 7.76745455,5.4891344 L7.76745455,6.58774954 C7.06872727,6.72864693 6.22179798,6.8301315 5.02571717,6.8301315 C3.00137374,6.8301315 1.97371717,6.54009711 0.98,6.25953827 C0.660121212,6.16917717 0.345333333,6.08087598 0.000141414141,6.00287431 L0.000141414141,12.6341153 L27.9018586,12.6341153 L27.9018586,5.73824538 C26.3498384,5.77820751 25.5152121,6.01221253 24.6394343,6.25953827 C23.6455758,6.54009711 22.6176364,6.8301315 20.5928687,6.8301315 C18.568101,6.8301315 17.5405859,6.54009711 16.5464444,6.25953827 C15.5849697,5.988043 14.6763838,5.73151637 12.8090101,5.73151637 C10.9897172,5.73151637 10.0804242,5.97499695 9.14525253,6.23866458 L9.14525253,5.12205962 C10.033899,4.879403 11.0416162,4.65830671 12.8090101,4.65830671 C14.8334949,4.65830671 15.8612929,4.9483411 16.8551515,5.22889994 C17.8170505,5.50025788 18.7254949,5.75692184 20.5928687,5.75692184 C22.4602424,5.75692184 23.3691111,5.50025788 24.3305859,5.22889994 C25.2434141,4.97127469 26.1866465,4.70637112 27.9018586,4.66448642 L27.9018586,2.91343121 C27.2697374,2.93004777 26.7554141,2.97838683 26.310101,3.04677563 L26.310101,1.96189318 C26.7631919,1.89927212 27.2824646,1.85505286 27.9018586,1.8399469 L27.9018586,0.0890290242 C26.3498384,0.12899115 25.5152121,0.362996174 24.6394343,0.610321907" id="Fill-3" fill="#FFFFFF" mask="url(#mask-4)"></path>
                </g>
            </g>
        </g>
    </g>
</svg>