<?xml version="1.0" encoding="UTF-8"?>
<svg width="204px" height="25px" viewBox="0 0 204 25" version="1.1" xmlns="http://www.w3.org/2000/svg" xmlns:xlink="http://www.w3.org/1999/xlink">
    <title>标题logo文字</title>
    <g id="页面-1" stroke="none" stroke-width="1" fill="none" fill-rule="evenodd">
        <g id="画板" transform="translate(-63.000000, -13.000000)" fill="#FFFFFF" fill-rule="nonzero">
            <g id="标题logo文字" transform="translate(63.273000, 13.380000)">
                <path d="M2.085,13.146 C4.927,11.648 6.817,9.296 7.741,6.09 C8.805,9.058 10.695,11.368 13.383,13.02 L14.209,11.942 C11.437,10.304 9.547,7.994 8.567,4.998 L13.915,4.998 L13.915,3.71 L8.231,3.71 C8.343,2.87 8.399,1.988 8.399,1.064 L8.399,0.154 L7.055,0.154 L7.055,1.372 C7.041,2.184 6.985,2.968 6.901,3.71 L1.539,3.71 L1.539,4.998 L6.677,4.998 C5.935,8.274 4.115,10.626 1.231,12.026 L2.085,13.146 Z M18.531,3.388 L19.497,2.45 C18.839,1.722 18.041,0.994 17.117,0.252 L16.193,1.134 C17.201,1.946 17.985,2.688 18.531,3.388 Z M27.477,2.058 L27.477,0.826 L20.925,0.826 L20.925,2.058 L27.477,2.058 Z M27.127,10.724 L28.317,10.416 C27.743,8.764 27.085,7.308 26.357,6.034 L25.279,6.384 C25.615,7.014 25.937,7.672 26.245,8.372 C25.167,8.652 23.851,8.876 22.283,9.072 C22.885,8.19 23.515,6.916 24.187,5.25 L28.499,5.25 L28.499,3.99 L20.043,3.99 L20.043,5.25 L22.857,5.25 C21.807,7.784 20.995,9.142 20.435,9.31 L20.771,10.458 C23.207,10.206 25.195,9.898 26.707,9.52 C26.847,9.912 26.987,10.304 27.127,10.724 Z M17.005,13.118 C17.719,11.858 18.223,11.228 18.517,11.228 C18.685,11.228 18.853,11.34 19.035,11.578 C19.455,12.054 19.931,12.39 20.491,12.558 C21.065,12.698 21.793,12.782 22.689,12.796 C23.571,12.81 24.383,12.824 25.139,12.824 L28.359,12.824 L28.695,11.508 C28.303,11.536 27.757,11.564 27.057,11.578 C26.343,11.592 25.643,11.606 24.957,11.606 C23.893,11.606 22.969,11.592 22.185,11.578 C21.373,11.55 20.757,11.424 20.351,11.228 C20.015,11.046 19.679,10.766 19.357,10.388 C19.287,10.304 19.231,10.248 19.175,10.192 L19.175,4.886 L16.039,4.886 L16.039,6.118 L17.929,6.118 L17.929,10.08 C17.369,10.36 16.725,11.074 16.025,12.208 L17.005,13.118 Z M33.003,3.388 L33.969,2.45 C33.297,1.75 32.471,1.064 31.505,0.364 L30.553,1.288 C31.603,2.044 32.415,2.744 33.003,3.388 Z M40.703,13.02 C41.641,13.02 42.117,12.516 42.117,11.522 L42.117,2.198 L43.139,2.198 L43.139,0.91 L34.151,0.91 L34.151,2.198 L40.801,2.198 L40.801,11.186 C40.801,11.606 40.605,11.83 40.241,11.83 C39.555,11.83 38.841,11.802 38.085,11.746 L38.365,13.02 L40.703,13.02 Z M32.583,6.748 L33.535,5.796 C32.919,5.124 32.149,4.466 31.253,3.794 L30.301,4.704 C31.281,5.432 32.051,6.104 32.583,6.748 Z M39.303,9.422 L39.303,4.018 L34.711,4.018 L34.711,9.422 L39.303,9.422 Z M38.071,8.218 L35.943,8.218 L35.943,5.208 L38.071,5.208 L38.071,8.218 Z M31.771,13.048 C32.485,11.494 33.129,9.842 33.717,8.078 L32.499,7.602 C31.911,9.254 31.225,10.878 30.427,12.46 L31.771,13.048 Z M56.967,13.146 L57.709,12.026 C55.553,11.242 53.733,10.248 52.277,9.058 C53.593,7.616 54.587,5.838 55.259,3.71 L57.401,3.71 L57.401,2.394 L52.095,2.394 C51.661,1.47 51.185,0.672 50.681,-1.24344979e-14 L49.351,0.49 C49.883,1.092 50.331,1.722 50.695,2.394 L45.053,2.394 L45.053,3.71 L47.195,3.71 C47.797,5.782 48.875,7.602 50.415,9.142 C48.931,10.416 47.069,11.34 44.801,11.928 L45.515,13.104 C47.825,12.432 49.771,11.396 51.353,9.996 C52.837,11.256 54.713,12.306 56.967,13.146 Z M51.339,8.232 C50.009,6.944 49.057,5.432 48.469,3.71 L53.887,3.71 C53.327,5.474 52.473,6.986 51.339,8.232 Z M62.801,13.09 L62.801,3.864 C63.557,2.842 64.173,1.75 64.649,0.602 L63.403,0.014 C62.507,2.198 61.107,4.102 59.217,5.74 L59.637,7.126 C60.295,6.58 60.911,6.006 61.485,5.418 L61.485,13.09 L62.801,13.09 Z M70.053,12.838 C70.753,12.838 71.243,12.67 71.509,12.334 C71.761,11.998 71.943,11.018 72.041,9.408 L70.809,9.002 C70.781,10.29 70.683,11.032 70.543,11.242 C70.389,11.452 70.151,11.564 69.829,11.564 L67.743,11.564 C67.295,11.564 67.085,11.368 67.085,10.976 L67.085,6.468 C68.793,5.404 70.305,4.172 71.635,2.8 L70.711,1.75 C69.675,2.912 68.457,3.948 67.085,4.858 L67.085,0.238 L65.755,0.238 L65.755,5.684 C65.083,6.076 64.355,6.426 63.599,6.762 L64.201,8.022 C64.733,7.77 65.251,7.504 65.755,7.238 L65.755,11.158 C65.755,12.278 66.315,12.838 67.435,12.838 L70.053,12.838 Z M74.711,12.586 C75.817,11.634 76.615,10.5 77.091,9.156 C77.511,9.632 78.029,10.276 78.659,11.102 L79.443,9.926 C78.757,9.212 78.085,8.568 77.413,7.98 C77.469,7.672 77.539,7.336 77.595,6.972 L79.233,6.972 L79.233,5.754 L77.735,5.754 C77.805,5.026 77.847,4.228 77.861,3.36 L79.205,3.36 L79.205,2.142 L76.265,2.142 C76.419,1.652 76.559,1.12 76.699,0.532 L75.425,0.196 C75.117,1.722 74.613,3.038 73.913,4.13 L74.865,5.026 C75.201,4.564 75.523,4.004 75.817,3.36 L76.573,3.36 C76.559,4.228 76.517,5.026 76.447,5.754 L73.941,5.754 L73.941,6.972 L76.293,6.972 C76.251,7.224 76.209,7.462 76.153,7.714 C75.789,9.226 75.019,10.514 73.871,11.55 L74.711,12.586 Z M86.457,2.044 L86.457,0.784 L79.317,0.784 L79.317,2.044 L86.457,2.044 Z M85.897,7.728 L85.897,3.136 L79.807,3.136 L79.807,7.728 L85.897,7.728 Z M84.609,6.496 L81.095,6.496 L81.095,4.382 L84.609,4.382 L84.609,6.496 Z M86.653,12.6 L86.653,11.298 L84.637,11.298 C85.057,10.444 85.421,9.492 85.729,8.428 L84.385,8.064 C84.063,9.324 83.699,10.402 83.293,11.298 L78.743,11.298 L78.743,12.6 L86.653,12.6 Z M80.955,11.074 L82.159,10.766 C81.893,9.772 81.599,8.89 81.277,8.12 L80.115,8.498 C80.451,9.324 80.731,10.178 80.955,11.074 Z M91.549,13.062 L91.549,7.462 C91.997,7.826 92.431,8.246 92.865,8.722 L93.621,7.574 C93.005,7 92.333,6.496 91.605,6.048 C92.333,5.068 92.879,4.088 93.215,3.094 L93.215,1.974 L91.843,1.974 C91.675,1.386 91.423,0.728 91.115,0.014 L89.855,0.378 C90.135,0.896 90.373,1.428 90.583,1.974 L88.595,1.974 L88.595,3.248 L91.885,3.248 C91.255,4.676 90.051,6.132 88.273,7.644 L88.693,9.044 C89.253,8.568 89.771,8.092 90.247,7.616 L90.247,13.062 L91.549,13.062 Z M95.315,8.498 L95.315,1.89 L98.857,1.89 L98.857,8.498 L100.201,8.498 L100.201,0.616 L93.999,0.616 L93.999,8.498 L95.315,8.498 Z M93.299,13.174 C94.811,12.53 95.903,11.634 96.589,10.458 C96.785,10.066 96.967,9.632 97.135,9.142 L97.135,11.466 C97.135,12.376 97.555,12.838 98.395,12.838 L99.781,12.838 C100.229,12.838 100.579,12.726 100.803,12.516 C101.027,12.278 101.195,11.564 101.293,10.374 L100.061,9.968 C100.019,10.766 99.963,11.242 99.879,11.41 C99.795,11.55 99.683,11.62 99.543,11.62 L98.787,11.62 C98.535,11.62 98.423,11.466 98.423,11.186 L98.423,8.456 L97.331,8.456 C97.541,7.588 97.667,6.566 97.709,5.418 L97.709,2.772 L96.421,2.772 L96.421,5.418 C96.365,7.112 96.085,8.484 95.581,9.548 C95.049,10.542 94.055,11.368 92.585,12.012 L93.299,13.174 Z M108.779,5.53 L108.779,4.228 L106.875,4.228 L106.875,2.94 L108.597,2.94 L108.597,1.694 L106.875,1.694 L106.875,0.168 L105.573,0.168 L105.573,4.228 L104.775,4.228 L104.775,1.316 L103.501,1.316 L103.501,4.228 L102.801,4.228 L102.801,5.53 L108.779,5.53 Z M110.599,9.898 L110.599,4.326 L113.917,4.326 L113.917,9.898 L115.205,9.898 L115.205,3.108 L112.769,3.108 C112.825,2.716 112.867,2.296 112.895,1.862 L115.597,1.862 L115.597,0.616 L108.933,0.616 L108.933,1.862 L111.523,1.862 C111.481,2.282 111.439,2.702 111.383,3.108 L109.325,3.108 L109.325,9.898 L110.599,9.898 Z M109.059,13.104 C110.375,12.642 111.313,11.984 111.901,11.144 C112.489,10.234 112.811,9.016 112.867,7.49 L112.867,5.026 L111.579,5.026 L111.579,7.49 C111.523,8.638 111.285,9.562 110.851,10.29 C110.403,10.948 109.563,11.494 108.331,11.942 L109.059,13.104 Z M103.627,13.02 C106.623,12.026 108.429,9.954 109.045,6.804 L107.883,6.538 C107.673,7.518 107.309,8.4 106.791,9.156 L106.791,5.936 L105.517,5.936 L105.517,9.632 L106.427,9.632 C105.559,10.626 104.383,11.354 102.871,11.802 L103.627,13.02 Z M103.753,10.094 C104.271,9.38 104.691,8.358 105.013,7.042 L103.851,6.58 C103.613,7.672 103.249,8.554 102.759,9.226 L103.753,10.094 Z M114.785,13.118 L115.765,12.138 C115.121,11.382 114.337,10.612 113.413,9.842 L112.517,10.696 C113.497,11.564 114.253,12.362 114.785,13.118 Z M120.605,13.09 L120.605,12.544 L127.213,12.544 L127.213,13.09 L128.557,13.09 L128.557,7.14 L123.209,7.14 L124.035,6.3 C123.307,5.768 122.439,5.236 121.403,4.704 C121.417,4.648 121.431,4.578 121.459,4.508 L124.245,4.508 L124.245,3.29 L121.739,3.29 C121.795,2.954 121.823,2.604 121.851,2.226 L123.853,2.226 L123.853,1.05 L120.017,1.05 C120.129,0.798 120.241,0.546 120.339,0.266 L119.149,0.014 C118.673,1.078 118.099,1.89 117.455,2.464 L118.113,3.29 L117.483,3.29 L117.483,4.508 L120.087,4.508 L120.059,4.564 C119.611,5.488 118.673,6.258 117.217,6.902 L118.113,7.98 C118.533,7.784 118.911,7.56 119.275,7.336 L119.275,13.09 L120.605,13.09 Z M129.579,6.356 L129.579,1.064 L124.679,1.064 L124.679,6.356 L129.579,6.356 Z M120.451,3.29 L118.435,3.29 C118.757,2.996 119.065,2.646 119.359,2.226 L120.577,2.226 C120.549,2.59 120.507,2.94 120.451,3.29 Z M128.277,5.194 L125.981,5.194 L125.981,2.24 L128.277,2.24 L128.277,5.194 Z M122.971,7.14 L119.555,7.14 C120.157,6.692 120.633,6.202 120.969,5.67 C121.781,6.174 122.439,6.664 122.971,7.14 Z M127.213,9.296 L120.605,9.296 L120.605,8.316 L127.213,8.316 L127.213,9.296 Z M127.213,11.368 L120.605,11.368 L120.605,10.444 L127.213,10.444 L127.213,11.368 Z M137.891,4.788 L138.983,4.004 C138.535,3.192 137.905,2.226 137.079,1.12 L136.057,1.764 C136.337,2.17 136.603,2.562 136.855,2.954 C135.721,3.094 134.657,3.206 133.677,3.262 C134.405,2.562 135.063,1.652 135.651,0.504 L134.377,0.126 C133.929,1.078 133.271,2.03 132.417,2.982 C132.249,3.122 132.053,3.234 131.815,3.318 L132.179,4.424 C134.223,4.312 135.973,4.144 137.429,3.92 C137.597,4.214 137.751,4.508 137.891,4.788 Z M142.861,6.342 C143.365,6.342 143.743,6.23 143.995,6.02 C144.247,5.782 144.443,5.082 144.555,3.92 L143.309,3.514 C143.281,4.298 143.197,4.774 143.085,4.942 C142.987,5.082 142.833,5.152 142.609,5.152 L140.943,5.152 C140.607,5.152 140.439,4.914 140.439,4.466 L140.439,3.066 C141.937,2.842 143.253,2.59 144.401,2.324 L143.967,1.148 C143.057,1.4 141.881,1.624 140.439,1.848 L140.439,0.196 L139.123,0.196 L139.123,4.746 C139.123,5.81 139.599,6.342 140.579,6.342 L142.861,6.342 Z M133.915,13.09 L133.915,10.472 L136.799,10.472 L136.799,11.256 C136.799,11.62 136.631,11.802 136.309,11.802 L135.315,11.746 L135.637,12.992 L136.729,12.992 C137.625,12.992 138.087,12.502 138.087,11.536 L138.087,5.012 L132.627,5.012 L132.627,13.09 L133.915,13.09 Z M136.799,7.252 L133.915,7.252 L133.915,6.174 L136.799,6.174 L136.799,7.252 Z M142.875,12.852 C143.393,12.852 143.771,12.74 144.009,12.53 C144.261,12.306 144.443,11.606 144.555,10.43 L143.351,10.038 C143.309,10.822 143.225,11.298 143.113,11.466 C143.015,11.592 142.847,11.662 142.623,11.662 L140.929,11.662 C140.593,11.662 140.439,11.536 140.439,11.284 L140.439,9.576 C141.839,9.436 143.169,9.212 144.401,8.876 L143.967,7.686 C142.931,7.994 141.755,8.232 140.439,8.372 L140.439,6.832 L139.123,6.832 L139.123,11.578 C139.123,12.418 139.599,12.852 140.551,12.852 L142.875,12.852 Z M136.799,9.366 L133.915,9.366 L133.915,8.344 L136.799,8.344 L136.799,9.366 Z M158.971,2.394 L158.971,1.246 L155.555,1.246 C155.807,0.924 156.017,0.588 156.171,0.224 L154.827,0.042 C154.701,0.462 154.505,0.854 154.253,1.246 L151.397,1.246 C151.215,0.798 151.019,0.392 150.823,0.028 L149.493,0.252 C149.717,0.56 149.913,0.882 150.095,1.246 L146.483,1.246 L146.483,2.394 L158.971,2.394 Z M156.535,8.204 C157.459,8.204 157.935,7.714 157.935,6.762 L157.935,2.912 L156.633,2.912 L156.633,6.454 C156.633,6.902 156.451,7.126 156.115,7.126 C155.639,7.126 155.135,7.098 154.631,7.042 L154.897,8.204 L156.535,8.204 Z M148.765,8.232 L148.765,6.72 L151.663,6.72 L151.663,6.874 C151.663,7.126 151.467,7.252 151.089,7.252 L150.207,7.21 L150.487,8.232 L151.425,8.232 C152.433,8.232 152.937,7.868 152.937,7.154 L152.937,2.996 L147.491,2.996 L147.491,8.232 L148.765,8.232 Z M155.331,6.636 L155.331,3.262 L154.085,3.262 L154.085,6.636 L155.331,6.636 Z M151.663,4.48 L148.765,4.48 L148.765,3.976 L151.663,3.976 L151.663,4.48 Z M151.663,5.852 L148.765,5.852 L148.765,5.348 L151.663,5.348 L151.663,5.852 Z M146.945,13.006 C150.067,12.572 151.957,11.508 152.629,9.814 L156.661,9.814 C156.661,10.262 156.619,10.696 156.549,11.102 C156.465,11.48 156.157,11.676 155.611,11.704 C155.079,11.704 154.505,11.662 153.861,11.592 L154.197,12.824 C154.589,12.866 155.093,12.894 155.681,12.894 C156.577,12.894 157.193,12.642 157.529,12.152 C157.865,11.662 158.033,10.514 158.033,8.694 L147.057,8.694 L147.057,9.814 L151.243,9.814 C150.655,10.85 149.031,11.522 146.399,11.802 L146.945,13.006 Z M164.721,13.076 L164.721,10.066 C165.281,9.94 165.827,9.814 166.345,9.688 L166.345,8.456 C165.841,8.568 165.295,8.694 164.721,8.806 L164.721,7.196 L166.163,7.196 L166.163,5.992 L164.721,5.992 L164.721,4.06 L163.433,4.06 L163.433,5.992 L162.341,5.992 C162.649,5.18 162.943,4.27 163.223,3.248 L166.345,3.248 L166.345,1.988 L163.531,1.988 C163.643,1.456 163.769,0.896 163.881,0.322 L162.621,0.14 C162.509,0.784 162.383,1.4 162.257,1.988 L160.899,1.988 L160.899,3.248 L161.949,3.248 C161.655,4.368 161.333,5.292 160.997,6.034 L161.291,7.196 L163.433,7.196 L163.433,9.044 C162.607,9.184 161.725,9.296 160.787,9.408 L160.969,10.682 C161.823,10.57 162.649,10.458 163.433,10.318 L163.433,13.076 L164.721,13.076 Z M172.869,3.738 L172.869,0.602 L167.129,0.602 L167.129,3.738 L172.869,3.738 Z M171.609,2.744 L168.403,2.744 L168.403,1.652 L171.609,1.652 L171.609,2.744 Z M172.645,13.09 L172.645,11.368 L173.751,11.172 L173.751,10.038 C173.401,10.094 173.037,10.164 172.645,10.22 L172.645,5.558 L173.611,5.558 L173.611,4.396 L166.289,4.396 L166.289,5.558 L167.185,5.558 L167.185,10.878 C166.779,10.906 166.359,10.934 165.939,10.976 L166.107,12.166 C167.997,11.998 169.747,11.788 171.371,11.564 L171.371,13.09 L172.645,13.09 Z M171.371,6.51 L168.445,6.51 L168.445,5.558 L171.371,5.558 L171.371,6.51 Z M171.371,8.54 L168.445,8.54 L168.445,7.588 L171.371,7.588 L171.371,8.54 Z M168.445,10.752 L168.445,9.618 L171.371,9.618 L171.371,10.416 C170.447,10.528 169.467,10.64 168.445,10.752 Z M182.343,13.048 L182.343,8.204 L187.971,8.204 L187.971,6.93 L182.343,6.93 L182.343,1.974 L187.439,1.974 L187.439,0.672 L176.043,0.672 L176.043,1.974 L180.999,1.974 L180.999,6.93 L175.483,6.93 L175.483,8.204 L180.999,8.204 L180.999,13.048 L182.343,13.048 Z M185.199,6.314 C185.843,5.278 186.375,4.228 186.781,3.15 L185.563,2.576 C185.171,3.598 184.653,4.634 183.995,5.698 L185.199,6.314 Z M178.227,6.384 L179.473,5.768 C178.997,4.62 178.507,3.584 178.003,2.632 L176.757,3.234 C177.275,4.158 177.765,5.208 178.227,6.384 Z M201.281,6.888 L202.583,6.244 C201.561,4.55 200.483,3.01 199.349,1.61 L198.145,2.184 C198.607,2.772 199.069,3.388 199.517,4.06 C197.291,4.27 194.995,4.424 192.615,4.508 C193.791,3.444 194.939,2.128 196.073,0.56 L194.687,0.084 C192.811,2.828 191.341,4.326 190.277,4.564 L190.529,5.824 C194.113,5.684 197.375,5.488 200.301,5.236 C200.623,5.754 200.945,6.3 201.281,6.888 Z M192.783,13.076 L192.783,12.502 L199.671,12.502 L199.671,13.076 L201.015,13.076 L201.015,7.126 L191.439,7.126 L191.439,13.076 L192.783,13.076 Z M199.671,11.228 L192.783,11.228 L192.783,8.4 L199.671,8.4 L199.671,11.228 Z" id="大运河文化短视频智能剪辑平台"></path>
                <path d="M2.275,23.111 C2.6585,23.111 3.016,23.059 3.354,22.955 C3.6725,22.851 3.9455,22.7145 4.1665,22.5325 L4.1665,20.6345 L2.184,20.6345 L2.184,21.096 L3.64,21.096 L3.64,22.279 C3.4775,22.383 3.2825,22.474 3.055,22.539 C2.821,22.604 2.5805,22.643 2.327,22.643 C1.7225,22.643 1.2675,22.461 0.962,22.1035 C0.676,21.7655 0.533,21.304 0.533,20.719 C0.533,20.121 0.676,19.6465 0.975,19.2955 C1.274,18.938 1.6705,18.7625 2.1775,18.7625 C2.587,18.7625 2.9185,18.86 3.172,19.0615 C3.4125,19.25 3.5685,19.5165 3.64,19.8675 L4.173,19.8675 C4.0885,19.3605 3.887,18.977 3.562,18.7105 C3.2175,18.4245 2.756,18.288 2.1775,18.288 C1.495,18.288 0.9555,18.5285 0.559,19.016 C0.182,19.4645 1.42108547e-14,20.03 1.42108547e-14,20.719 C1.42108547e-14,21.408 0.1885,21.9735 0.5655,22.409 C0.9685,22.877 1.5405,23.111 2.275,23.111 Z M5.69,23.02 L5.69,21.0245 L7.094,21.0245 C7.3865,21.0245 7.6075,21.0765 7.7635,21.1935 C7.9325,21.3105 8.03,21.512 8.056,21.785 L8.1145,22.4025 C8.134,22.6625 8.199,22.864 8.303,23.02 L8.8815,23.02 C8.745,22.851 8.6605,22.6235 8.6345,22.3375 L8.563,21.6225 C8.511,21.1545 8.264,20.875 7.822,20.7775 L7.822,20.7645 C8.0885,20.6995 8.2965,20.5695 8.4525,20.3615 C8.5955,20.16 8.667,19.9325 8.667,19.6725 C8.667,19.2435 8.524,18.9185 8.251,18.6975 C7.9845,18.483 7.6205,18.379 7.159,18.379 L5.157,18.379 L5.157,23.02 L5.69,23.02 Z M7.094,20.563 L5.69,20.563 L5.69,18.8405 L7.094,18.8405 C7.4515,18.8405 7.718,18.912 7.887,19.055 C8.043,19.1915 8.1275,19.406 8.1275,19.692 C8.1275,19.965 8.043,20.173 7.8805,20.3225 C7.6985,20.4785 7.432,20.563 7.094,20.563 Z M9.755,23.02 L10.249,21.72 L12.381,21.72 L12.875,23.02 L13.4535,23.02 L11.627,18.379 L11.0095,18.379 L9.183,23.02 L9.755,23.02 Z M12.212,21.2715 L10.418,21.2715 L11.3085,18.951 L11.3345,18.951 L12.212,21.2715 Z M14.5545,23.02 L14.5545,19.2045 L14.574,19.2045 L17.213,23.02 L17.759,23.02 L17.759,18.379 L17.226,18.379 L17.226,22.1555 L17.2065,22.1555 L14.5805,18.379 L14.0215,18.379 L14.0215,23.02 L14.5545,23.02 Z M20.407,23.02 C21.135,23.02 21.694,22.8055 22.084,22.383 C22.4545,21.98 22.643,21.4145 22.643,20.6995 C22.643,19.9715 22.4675,19.406 22.123,19.016 C21.746,18.587 21.1935,18.379 20.459,18.379 L18.795,18.379 L18.795,23.02 L20.407,23.02 Z M20.316,22.5585 L19.328,22.5585 L19.328,18.8405 L20.3745,18.8405 C20.9855,18.8405 21.4275,18.9965 21.7135,19.315 C21.98,19.614 22.1165,20.0755 22.1165,20.6995 C22.1165,21.304 21.967,21.7655 21.681,22.0775 C21.3755,22.396 20.9205,22.5585 20.316,22.5585 Z M27.731,23.111 C28.225,23.111 28.654,22.968 29.0115,22.6885 C29.395,22.3895 29.6355,21.967 29.7395,21.4275 L29.226,21.4275 C29.135,21.8305 28.9465,22.136 28.6735,22.344 C28.4135,22.539 28.1015,22.6365 27.731,22.6365 C27.185,22.6365 26.7755,22.4545 26.4895,22.097 C26.2165,21.759 26.0865,21.2975 26.0865,20.719 C26.0865,20.1405 26.223,19.679 26.496,19.328 C26.7885,18.951 27.2045,18.7625 27.744,18.7625 C28.108,18.7625 28.4135,18.847 28.667,19.0225 C28.927,19.2045 29.096,19.4645 29.161,19.8025 L29.6745,19.8025 C29.6095,19.341 29.4015,18.9705 29.0505,18.6975 C28.6995,18.4245 28.264,18.288 27.7505,18.288 C27.0355,18.288 26.4765,18.5285 26.0865,19.0225 C25.729,19.4645 25.5535,20.03 25.5535,20.719 C25.5535,21.408 25.7225,21.967 26.0735,22.396 C26.457,22.8705 27.0095,23.111 27.731,23.111 Z M30.6845,23.02 L31.1785,21.72 L33.3105,21.72 L33.8045,23.02 L34.383,23.02 L32.5565,18.379 L31.939,18.379 L30.1125,23.02 L30.6845,23.02 Z M33.1415,21.2715 L31.3475,21.2715 L32.238,18.951 L32.264,18.951 L33.1415,21.2715 Z M35.484,23.02 L35.484,19.2045 L35.5035,19.2045 L38.1425,23.02 L38.6885,23.02 L38.6885,18.379 L38.1555,18.379 L38.1555,22.1555 L38.136,22.1555 L35.51,18.379 L34.951,18.379 L34.951,23.02 L35.484,23.02 Z M39.8285,23.02 L40.3225,21.72 L42.4545,21.72 L42.9485,23.02 L43.527,23.02 L41.7005,18.379 L41.083,18.379 L39.2565,23.02 L39.8285,23.02 Z M42.2855,21.2715 L40.4915,21.2715 L41.382,18.951 L41.408,18.951 L42.2855,21.2715 Z M47.306,23.02 L47.306,22.5585 L44.6215,22.5585 L44.6215,18.379 L44.095,18.379 L44.095,23.02 L47.306,23.02 Z M52.264,23.111 C52.758,23.111 53.187,22.968 53.5445,22.6885 C53.928,22.3895 54.1685,21.967 54.2725,21.4275 L53.759,21.4275 C53.668,21.8305 53.4795,22.136 53.2065,22.344 C52.9465,22.539 52.6345,22.6365 52.264,22.6365 C51.718,22.6365 51.3085,22.4545 51.0225,22.097 C50.7495,21.759 50.6195,21.2975 50.6195,20.719 C50.6195,20.1405 50.756,19.679 51.029,19.328 C51.3215,18.951 51.7375,18.7625 52.277,18.7625 C52.641,18.7625 52.9465,18.847 53.2,19.0225 C53.46,19.2045 53.629,19.4645 53.694,19.8025 L54.2075,19.8025 C54.1425,19.341 53.9345,18.9705 53.5835,18.6975 C53.2325,18.4245 52.797,18.288 52.2835,18.288 C51.5685,18.288 51.0095,18.5285 50.6195,19.0225 C50.262,19.4645 50.0865,20.03 50.0865,20.719 C50.0865,21.408 50.2555,21.967 50.6065,22.396 C50.99,22.8705 51.5425,23.111 52.264,23.111 Z M56.966,23.111 C57.577,23.111 58.0385,22.9485 58.357,22.6235 C58.6625,22.305 58.8185,21.8435 58.8185,21.239 L58.8185,18.379 L58.2855,18.379 L58.2855,21.2455 C58.2855,21.7005 58.1815,22.045 57.98,22.279 C57.759,22.5195 57.421,22.643 56.966,22.643 C56.5045,22.643 56.1665,22.5195 55.952,22.279 C55.744,22.045 55.6465,21.7005 55.6465,21.2455 L55.6465,18.379 L55.1135,18.379 L55.1135,21.239 C55.1135,21.8435 55.2695,22.305 55.5815,22.63 C55.8935,22.9485 56.355,23.111 56.966,23.111 Z M63.0655,23.02 L63.0655,22.5585 L60.381,22.5585 L60.381,18.379 L59.8545,18.379 L59.8545,23.02 L63.0655,23.02 Z M65.5835,23.02 L65.5835,18.8405 L67.2215,18.8405 L67.2215,18.379 L63.419,18.379 L63.419,18.8405 L65.057,18.8405 L65.057,23.02 L65.5835,23.02 Z M69.7525,23.111 C70.3635,23.111 70.825,22.9485 71.1435,22.6235 C71.449,22.305 71.605,21.8435 71.605,21.239 L71.605,18.379 L71.072,18.379 L71.072,21.2455 C71.072,21.7005 70.968,22.045 70.7665,22.279 C70.5455,22.5195 70.2075,22.643 69.7525,22.643 C69.291,22.643 68.953,22.5195 68.7385,22.279 C68.5305,22.045 68.433,21.7005 68.433,21.2455 L68.433,18.379 L67.9,18.379 L67.9,21.239 C67.9,21.8435 68.056,22.305 68.368,22.63 C68.68,22.9485 69.1415,23.111 69.7525,23.111 Z M73.174,23.02 L73.174,21.0245 L74.578,21.0245 C74.8705,21.0245 75.0915,21.0765 75.2475,21.1935 C75.4165,21.3105 75.514,21.512 75.54,21.785 L75.5985,22.4025 C75.618,22.6625 75.683,22.864 75.787,23.02 L76.3655,23.02 C76.229,22.851 76.1445,22.6235 76.1185,22.3375 L76.047,21.6225 C75.995,21.1545 75.748,20.875 75.306,20.7775 L75.306,20.7645 C75.5725,20.6995 75.7805,20.5695 75.9365,20.3615 C76.0795,20.16 76.151,19.9325 76.151,19.6725 C76.151,19.2435 76.008,18.9185 75.735,18.6975 C75.4685,18.483 75.1045,18.379 74.643,18.379 L72.641,18.379 L72.641,23.02 L73.174,23.02 Z M74.578,20.563 L73.174,20.563 L73.174,18.8405 L74.578,18.8405 C74.9355,18.8405 75.202,18.912 75.371,19.055 C75.527,19.1915 75.6115,19.406 75.6115,19.692 C75.6115,19.965 75.527,20.173 75.3645,20.3225 C75.1825,20.4785 74.916,20.563 74.578,20.563 Z M80.5345,23.02 L80.5345,22.5585 L77.668,22.5585 L77.668,20.8555 L80.268,20.8555 L80.268,20.394 L77.668,20.394 L77.668,18.8405 L80.424,18.8405 L80.424,18.379 L77.135,18.379 L77.135,23.02 L80.5345,23.02 Z M84.2055,23.02 L84.2055,18.379 L83.679,18.379 L83.679,23.02 L84.2055,23.02 Z M85.8135,23.02 L85.8135,19.2045 L85.833,19.2045 L88.472,23.02 L89.018,23.02 L89.018,18.379 L88.485,18.379 L88.485,22.1555 L88.4655,22.1555 L85.8395,18.379 L85.2805,18.379 L85.2805,23.02 L85.8135,23.02 Z M91.861,23.02 L91.861,18.8405 L93.499,18.8405 L93.499,18.379 L89.6965,18.379 L89.6965,18.8405 L91.3345,18.8405 L91.3345,23.02 L91.861,23.02 Z M97.577,23.02 L97.577,22.5585 L94.7105,22.5585 L94.7105,20.8555 L97.3105,20.8555 L97.3105,20.394 L94.7105,20.394 L94.7105,18.8405 L97.4665,18.8405 L97.4665,18.379 L94.1775,18.379 L94.1775,23.02 L97.577,23.02 Z M101.629,23.02 L101.629,22.5585 L98.9445,22.5585 L98.9445,18.379 L98.418,18.379 L98.418,23.02 L101.629,23.02 Z M105.551,23.02 L105.551,22.5585 L102.8665,22.5585 L102.8665,18.379 L102.34,18.379 L102.34,23.02 L105.551,23.02 Z M106.8275,23.02 L106.8275,18.379 L106.301,18.379 L106.301,23.02 L106.8275,23.02 Z M109.9825,23.111 C110.366,23.111 110.7235,23.059 111.0615,22.955 C111.38,22.851 111.653,22.7145 111.874,22.5325 L111.874,20.6345 L109.8915,20.6345 L109.8915,21.096 L111.3475,21.096 L111.3475,22.279 C111.185,22.383 110.99,22.474 110.7625,22.539 C110.5285,22.604 110.288,22.643 110.0345,22.643 C109.43,22.643 108.975,22.461 108.6695,22.1035 C108.3835,21.7655 108.2405,21.304 108.2405,20.719 C108.2405,20.121 108.3835,19.6465 108.6825,19.2955 C108.9815,18.938 109.378,18.7625 109.885,18.7625 C110.2945,18.7625 110.626,18.86 110.8795,19.0615 C111.12,19.25 111.276,19.5165 111.3475,19.8675 L111.8805,19.8675 C111.796,19.3605 111.5945,18.977 111.2695,18.7105 C110.925,18.4245 110.4635,18.288 109.885,18.288 C109.2025,18.288 108.663,18.5285 108.2665,19.016 C107.8895,19.4645 107.7075,20.03 107.7075,20.719 C107.7075,21.408 107.896,21.9735 108.273,22.409 C108.676,22.877 109.248,23.111 109.9825,23.111 Z M116.264,23.02 L116.264,22.5585 L113.3975,22.5585 L113.3975,20.8555 L115.9975,20.8555 L115.9975,20.394 L113.3975,20.394 L113.3975,18.8405 L116.1535,18.8405 L116.1535,18.379 L112.8645,18.379 L112.8645,23.02 L116.264,23.02 Z M117.638,23.02 L117.638,19.2045 L117.6575,19.2045 L120.2965,23.02 L120.8425,23.02 L120.8425,18.379 L120.3095,18.379 L120.3095,22.1555 L120.29,22.1555 L117.664,18.379 L117.105,18.379 L117.105,23.02 L117.638,23.02 Z M123.6855,23.02 L123.6855,18.8405 L125.3235,18.8405 L125.3235,18.379 L121.521,18.379 L121.521,18.8405 L123.159,18.8405 L123.159,23.02 L123.6855,23.02 Z M130.2035,23.02 L131.9195,18.379 L131.3345,18.379 L129.885,22.4415 L129.8655,22.4415 L128.416,18.379 L127.831,18.379 L129.547,23.02 L130.2035,23.02 Z M133.0855,23.02 L133.0855,18.379 L132.559,18.379 L132.559,23.02 L133.0855,23.02 Z M135.7725,23.02 C136.5005,23.02 137.0595,22.8055 137.4495,22.383 C137.82,21.98 138.0085,21.4145 138.0085,20.6995 C138.0085,19.9715 137.833,19.406 137.4885,19.016 C137.1115,18.587 136.559,18.379 135.8245,18.379 L134.1605,18.379 L134.1605,23.02 L135.7725,23.02 Z M135.6815,22.5585 L134.6935,22.5585 L134.6935,18.8405 L135.74,18.8405 C136.351,18.8405 136.793,18.9965 137.079,19.315 C137.3455,19.614 137.482,20.0755 137.482,20.6995 C137.482,21.304 137.3325,21.7655 137.0465,22.0775 C136.741,22.396 136.286,22.5585 135.6815,22.5585 Z M142.249,23.02 L142.249,22.5585 L139.3825,22.5585 L139.3825,20.8555 L141.9825,20.8555 L141.9825,20.394 L139.3825,20.394 L139.3825,18.8405 L142.1385,18.8405 L142.1385,18.379 L138.8495,18.379 L138.8495,23.02 L142.249,23.02 Z M145.1115,23.111 C145.807,23.111 146.3595,22.877 146.7625,22.4155 C147.1395,21.9735 147.3345,21.408 147.3345,20.706 C147.3345,19.9975 147.1395,19.4255 146.7625,18.9835 C146.3595,18.5155 145.807,18.288 145.118,18.288 C144.416,18.288 143.87,18.522 143.467,18.99 C143.0835,19.432 142.895,20.004 142.895,20.706 C142.895,21.4015 143.0835,21.9735 143.467,22.4155 C143.87,22.877 144.416,23.111 145.1115,23.111 Z M145.1115,22.6365 C144.5785,22.6365 144.156,22.4545 143.857,22.0905 C143.571,21.7395 143.428,21.278 143.428,20.706 C143.428,20.1275 143.571,19.666 143.857,19.315 C144.1625,18.9445 144.585,18.7625 145.118,18.7625 C145.651,18.7625 146.067,18.938 146.366,19.2955 C146.652,19.6465 146.8015,20.1145 146.8015,20.706 C146.8015,21.291 146.652,21.7525 146.366,22.1035 C146.067,22.4545 145.6445,22.6365 145.1115,22.6365 Z M152.4225,23.111 C152.9165,23.111 153.3455,22.968 153.703,22.6885 C154.0865,22.3895 154.327,21.967 154.431,21.4275 L153.9175,21.4275 C153.8265,21.8305 153.638,22.136 153.365,22.344 C153.105,22.539 152.793,22.6365 152.4225,22.6365 C151.8765,22.6365 151.467,22.4545 151.181,22.097 C150.908,21.759 150.778,21.2975 150.778,20.719 C150.778,20.1405 150.9145,19.679 151.1875,19.328 C151.48,18.951 151.896,18.7625 152.4355,18.7625 C152.7995,18.7625 153.105,18.847 153.3585,19.0225 C153.6185,19.2045 153.7875,19.4645 153.8525,19.8025 L154.366,19.8025 C154.301,19.341 154.093,18.9705 153.742,18.6975 C153.391,18.4245 152.9555,18.288 152.442,18.288 C151.727,18.288 151.168,18.5285 150.778,19.0225 C150.4205,19.4645 150.245,20.03 150.245,20.719 C150.245,21.408 150.414,21.967 150.765,22.396 C151.1485,22.8705 151.701,23.111 152.4225,23.111 Z M158.483,23.02 L158.483,22.5585 L155.7985,22.5585 L155.7985,18.379 L155.272,18.379 L155.272,23.02 L158.483,23.02 Z M159.7595,23.02 L159.7595,18.379 L159.233,18.379 L159.233,23.02 L159.7595,23.02 Z M161.3675,23.02 L161.3675,21.122 L162.726,21.122 C163.792,21.122 164.3315,20.6605 164.3315,19.744 C164.3315,18.834 163.7985,18.379 162.7325,18.379 L160.8345,18.379 L160.8345,23.02 L161.3675,23.02 Z M162.7,20.6605 L161.3675,20.6605 L161.3675,18.8405 L162.7,18.8405 C163.0705,18.8405 163.3435,18.912 163.5255,19.068 C163.7075,19.2045 163.7985,19.432 163.7985,19.744 C163.7985,20.056 163.7075,20.2835 163.532,20.433 C163.35,20.5825 163.077,20.6605 162.7,20.6605 Z M167.905,23.02 L167.905,21.122 L169.2635,21.122 C170.3295,21.122 170.869,20.6605 170.869,19.744 C170.869,18.834 170.336,18.379 169.27,18.379 L167.372,18.379 L167.372,23.02 L167.905,23.02 Z M169.2375,20.6605 L167.905,20.6605 L167.905,18.8405 L169.2375,18.8405 C169.608,18.8405 169.881,18.912 170.063,19.068 C170.245,19.2045 170.336,19.432 170.336,19.744 C170.336,20.056 170.245,20.2835 170.0695,20.433 C169.8875,20.5825 169.6145,20.6605 169.2375,20.6605 Z M174.856,23.02 L174.856,22.5585 L172.1715,22.5585 L172.1715,18.379 L171.645,18.379 L171.645,23.02 L174.856,23.02 Z M175.671,23.02 L176.165,21.72 L178.297,21.72 L178.791,23.02 L179.3695,23.02 L177.543,18.379 L176.9255,18.379 L175.099,23.02 L175.671,23.02 Z M178.128,21.2715 L176.334,21.2715 L177.2245,18.951 L177.2505,18.951 L178.128,21.2715 Z M181.7445,23.02 L181.7445,18.8405 L183.3825,18.8405 L183.3825,18.379 L179.58,18.379 L179.58,18.8405 L181.218,18.8405 L181.218,23.02 L181.7445,23.02 Z M184.594,23.02 L184.594,20.862 L187.0315,20.862 L187.0315,20.4005 L184.594,20.4005 L184.594,18.8405 L187.168,18.8405 L187.168,18.379 L184.061,18.379 L184.061,23.02 L184.594,23.02 Z M189.933,23.111 C190.6285,23.111 191.181,22.877 191.584,22.4155 C191.961,21.9735 192.156,21.408 192.156,20.706 C192.156,19.9975 191.961,19.4255 191.584,18.9835 C191.181,18.5155 190.6285,18.288 189.9395,18.288 C189.2375,18.288 188.6915,18.522 188.2885,18.99 C187.905,19.432 187.7165,20.004 187.7165,20.706 C187.7165,21.4015 187.905,21.9735 188.2885,22.4155 C188.6915,22.877 189.2375,23.111 189.933,23.111 Z M189.933,22.6365 C189.4,22.6365 188.9775,22.4545 188.6785,22.0905 C188.3925,21.7395 188.2495,21.278 188.2495,20.706 C188.2495,20.1275 188.3925,19.666 188.6785,19.315 C188.984,18.9445 189.4065,18.7625 189.9395,18.7625 C190.4725,18.7625 190.8885,18.938 191.1875,19.2955 C191.4735,19.6465 191.623,20.1145 191.623,20.706 C191.623,21.291 191.4735,21.7525 191.1875,22.1035 C190.8885,22.4545 190.466,22.6365 189.933,22.6365 Z M193.53,23.02 L193.53,21.0245 L194.934,21.0245 C195.2265,21.0245 195.4475,21.0765 195.6035,21.1935 C195.7725,21.3105 195.87,21.512 195.896,21.785 L195.9545,22.4025 C195.974,22.6625 196.039,22.864 196.143,23.02 L196.7215,23.02 C196.585,22.851 196.5005,22.6235 196.4745,22.3375 L196.403,21.6225 C196.351,21.1545 196.104,20.875 195.662,20.7775 L195.662,20.7645 C195.9285,20.6995 196.1365,20.5695 196.2925,20.3615 C196.4355,20.16 196.507,19.9325 196.507,19.6725 C196.507,19.2435 196.364,18.9185 196.091,18.6975 C195.8245,18.483 195.4605,18.379 194.999,18.379 L192.997,18.379 L192.997,23.02 L193.53,23.02 Z M194.934,20.563 L193.53,20.563 L193.53,18.8405 L194.934,18.8405 C195.2915,18.8405 195.558,18.912 195.727,19.055 C195.883,19.1915 195.9675,19.406 195.9675,19.692 C195.9675,19.965 195.883,20.173 195.7205,20.3225 C195.5385,20.4785 195.272,20.563 194.934,20.563 Z M198.024,23.02 L198.024,19.328 L198.0435,19.328 L199.649,23.02 L200.13,23.02 L201.7355,19.328 L201.755,19.328 L201.755,23.02 L202.288,23.02 L202.288,18.379 L201.625,18.379 L199.9025,22.3375 L199.883,22.3375 L198.154,18.379 L197.491,18.379 L197.491,23.02 L198.024,23.02 Z" id="GRANDCANALCULTUREINTELLIGENTVIDEOCLIPPLATFORM"></path>
            </g>
        </g>
    </g>
</svg>